<?xml version="1.0" encoding="utf-8"?>
<!-- Generator: Adobe Illustrator 25.2.0, SVG Export Plug-In . SVG Version: 6.00 Build 0)  -->
<svg version="1.1" id="레이어_1" xmlns="http://www.w3.org/2000/svg" xmlns:xlink="http://www.w3.org/1999/xlink" x="0px"
	 y="0px" viewBox="0 0 768 768" style="enable-background:new 0 0 768 768;" xml:space="preserve">
<style type="text/css">
	.st0{fill:#000000;}
</style>
<g fill="#ffffff">
	<path class="st0" d="M384,725c-91.08,0-176.72-35.47-241.12-99.88C78.47,560.72,43,475.08,43,384
		c0-91.08,35.47-176.72,99.88-241.12S292.92,43,384,43c91.08,0,176.72,35.47,241.12,99.88C689.53,207.28,725,292.92,725,384
		c0,91.08-35.47,176.72-99.88,241.12C560.72,689.53,475.08,725,384,725z"/>
	<path fill="ffffff" d="M384,60.5c43.69,0,86.05,8.55,125.91,25.41c38.52,16.29,73.12,39.62,102.84,69.34c29.72,29.72,53.05,64.32,69.34,102.84
		c16.86,39.86,25.41,82.22,25.41,125.91s-8.55,86.05-25.41,125.91c-16.29,38.52-39.62,73.12-69.34,102.84
		c-29.72,29.72-64.32,53.05-102.84,69.34C470.05,698.95,427.69,707.5,384,707.5s-86.05-8.55-125.91-25.41
		c-38.52-16.29-73.12-39.62-102.84-69.34c-29.72-29.72-53.05-64.32-69.34-102.84C69.05,470.05,60.5,427.69,60.5,384
		s8.55-86.05,25.41-125.91c16.29-38.52,39.62-73.12,69.34-102.84c29.72-29.72,64.32-53.05,102.84-69.34
		C297.95,69.05,340.31,60.5,384,60.5 M384,25.5C186.01,25.5,25.5,186.01,25.5,384S186.01,742.5,384,742.5S742.5,581.99,742.5,384
		S581.99,25.5,384,25.5L384,25.5z"/>
</g>
<g fill="#ffffff">
	<path d="M542.5,351.69c-0.37-6.42,0.06-14.6,3.22-22.45c2.19-5.44,5.45-9.61,11.7-10.25c9.9-1.02,17.5,7.19,14.93,16.81
		c-2.92,10.93-3.23,21.58,0.02,32.45c1.36,4.55,0.06,8.84-3.04,12.59c-16.95,20.5-33.83,41.06-50.8,61.55
		c-16.89,20.39-33.82,40.74-50.8,61.06c-14.17,16.96-28.47,33.81-42.61,50.8c-4.09,4.91-8.84,6.28-14.95,4.48
		c-28.93-8.51-57.95-16.75-86.86-25.35c-28.32-8.43-56.62-16.92-84.78-25.85c-25.21-7.99-38.74-26.68-43.01-51.83
		c-3.94-23.2,1.4-45.3,12.99-65.57c3.84-6.72,9.68-12.34,14.87-18.23c9.73-11.04,19.68-21.89,29.5-32.85
		c14.33-15.99,28.63-32.02,42.94-48.02c18.81-21.03,37.59-42.09,56.45-63.08c5-5.56,10.09-11.06,15.41-16.31
		c4.13-4.07,9.48-3.47,14.52-2.39c19.85,4.25,39.67,8.65,59.47,13.09c39.87,8.95,79.72,17.95,119.58,26.98
		c7.6,1.72,12.91,6.84,13.05,13.43c0.06,2.96-0.98,6.61-2.84,8.83c-21.54,25.62-43.25,51.09-65.09,76.46
		c-21.91,25.45-43.97,50.78-66.07,76.08c-9.09,10.41-18.39,20.65-27.7,30.87c-3.69,4.05-8.45,4.49-13.46,3.08
		c-19.44-5.48-38.86-11.03-58.31-16.49c-29.9-8.4-59.79-16.83-89.74-25.04c-3.87-1.06-8.12-1.52-12.12-1.23
		c-8.18,0.58-13.24,5.42-15.03,13.38c-2.74,12.13-2.4,24.12,3.1,35.51c3.97,8.22,10.2,14.1,19.12,16.79
		c33.9,10.25,67.79,20.55,101.71,30.76c19.11,5.75,38.28,11.31,57.37,17.12c3.19,0.97,5.19,0.58,7.4-2.1
		c40.2-48.75,80.53-97.4,120.78-146.12C542.69,369.39,542.6,369.32,542.5,351.69z M467.16,322.58c5.11-0.46,9.45-2.08,12.78-5.88
		c3.7-4.22,7.4-8.45,10.84-12.89c3.41-4.39,1.96-8.73-3.25-10.57c-1.29-0.45-2.63-0.79-3.96-1.12
		c-17.64-4.44-35.24-9.07-52.94-13.25c-19.64-4.63-39.36-8.89-59.07-13.19c-3.97-0.87-8.02-0.01-10.82,2.85
		c-4.88,4.98-9.5,10.26-13.73,15.8c-3.07,4.03-1.24,8.3,3.61,9.99c1.41,0.49,2.83,0.97,4.28,1.33
		c29.15,7.22,58.28,14.47,87.45,21.58C450.57,319.24,458.89,320.81,467.16,322.58z"/>
</g>
</svg>
