<?xml version="1.0" standalone="no"?>
<!DOCTYPE svg PUBLIC "-//W3C//DTD SVG 20010904//EN"
 "http://www.w3.org/TR/2001/REC-SVG-20010904/DTD/svg10.dtd">
<svg version="1.0" xmlns="http://www.w3.org/2000/svg"
 width="512.000000pt" height="512.000000pt" viewBox="0 0 512.000000 512.000000"
 preserveAspectRatio="xMidYMid meet">
<metadata>
Created by potrace 1.14, written by Peter Selinger 2001-2017
</metadata>
<g transform="translate(0.000000,512.000000) scale(0.100000,-0.100000)"
fill="#000000" stroke="none">
<path d="M1175 5089 c-22 -22 -25 -28 -10 -22 17 6 18 5 5 -9 -11 -11 -19 -13
-28 -6 -7 6 -16 8 -20 4 -7 -7 -8 -11 -10 -52 -2 -17 -7 -20 -34 -17 -30 4
-31 3 -16 -10 13 -10 15 -16 6 -25 -7 -7 -17 -12 -22 -12 -6 0 -4 5 4 10 13 8
13 10 -2 10 -25 0 -31 -17 -11 -29 15 -8 16 -12 5 -23 -11 -11 -13 -10 -10 2
2 9 -6 16 -20 18 -20 3 -22 0 -16 -25 6 -27 6 -28 -11 -8 -13 16 -16 17 -11 3
3 -10 1 -20 -5 -24 -6 -3 -8 -12 -5 -19 3 -8 -2 -11 -13 -8 -10 2 -23 -3 -30
-11 -8 -9 -10 -16 -7 -16 4 0 2 -9 -4 -20 -6 -11 -17 -20 -26 -20 -8 0 -19
-10 -24 -22 -7 -19 -9 -20 -9 -5 -1 11 -6 17 -13 14 -7 -2 -12 -10 -10 -16 1
-7 -8 -21 -20 -31 -20 -16 -21 -21 -9 -32 12 -11 13 -10 8 5 -8 21 8 23 17 2
7 -19 -25 -37 -45 -24 -20 13 -29 11 -23 -4 6 -18 -21 -41 -40 -34 -20 8 -38
-16 -29 -38 4 -13 3 -16 -5 -11 -7 4 -12 3 -12 -3 0 -5 6 -12 13 -15 8 -4 7
-5 -3 -5 -39 3 -49 -1 -43 -18 4 -11 3 -14 -5 -9 -7 4 -12 2 -12 -3 0 -6 -6
-10 -12 -8 -7 1 -12 -3 -11 -10 2 -7 -4 -10 -12 -7 -8 4 -15 2 -15 -4 0 -14
-67 -82 -80 -82 -6 0 -8 -5 -5 -11 4 -6 -2 -13 -14 -16 -19 -5 -19 -6 -3 -31
l17 -27 -32 23 c-38 27 -43 22 -10 -9 12 -12 16 -19 10 -15 -8 4 -24 -4 -38
-18 -14 -14 -31 -23 -39 -20 -8 3 -17 1 -21 -5 -3 -6 1 -11 9 -11 20 0 20 -14
1 -30 -10 -9 -15 -9 -15 -1 0 22 -18 10 -34 -21 -8 -18 -16 -28 -16 -21 0 8
-8 7 -29 -3 -21 -10 -29 -21 -26 -34 2 -11 0 -20 -5 -20 -5 0 -16 -7 -24 -16
-9 -8 -16 -11 -16 -5 0 6 -7 8 -15 5 -8 -4 -12 -11 -9 -16 4 -6 0 -14 -7 -19
-11 -7 -11 -9 -1 -9 7 0 11 -4 7 -10 -3 -5 -13 -6 -23 -3 -15 6 -15 5 -3 -10
12 -15 11 -17 -13 -17 -16 0 -25 -4 -21 -10 3 -5 -1 -10 -9 -10 -10 0 -13 -6
-10 -15 5 -11 2 -13 -12 -8 -12 4 -15 3 -10 -6 5 -7 -8 -26 -33 -49 l-41 -37
0 -1958 0 -1957 2560 0 2560 0 0 2560 0 2560 -1883 0 c-1451 0 -1886 -3 -1895
-12 -9 -9 -12 -9 -12 1 0 8 -11 11 -32 9 -28 -2 -33 -7 -31 -26 2 -15 -1 -21
-8 -16 -6 3 -9 15 -6 25 3 13 0 19 -10 19 -11 0 -14 -7 -11 -25 3 -13 1 -22
-3 -19 -5 3 -9 14 -9 25 0 26 -9 23 -45 -12z m135 -13 c0 -2 -7 -9 -15 -16
-13 -11 -14 -10 -9 4 5 14 24 23 24 12z m-70 -26 c0 -5 -2 -10 -4 -10 -3 0 -8
5 -11 10 -3 6 -1 10 4 10 6 0 11 -4 11 -10z m-23 -32 c-9 -6 -9 -8 1 -8 6 0
12 -5 12 -11 0 -8 -5 -7 -15 1 -9 7 -13 15 -10 18 3 3 -1 12 -8 20 -11 13 -9
14 10 1 16 -9 19 -16 10 -21z m-47 -31 c0 -7 -6 -21 -13 -32 -13 -17 -14 -16
-13 6 1 13 6 27 11 31 14 10 15 10 15 -5z m-76 -89 c8 -6 7 -11 -4 -18 -22
-15 -30 -12 -23 8 6 15 5 15 -10 3 -15 -12 -15 -10 0 20 15 29 18 31 21 14 3
-11 9 -23 16 -27z m-58 -50 c-2 -13 -8 -22 -13 -21 -5 1 -21 -19 -35 -45 -14
-25 -31 -48 -39 -50 -11 -3 -11 -1 1 7 12 8 12 13 2 23 -9 9 -12 9 -12 0 0 -7
-4 -12 -9 -12 -6 0 -8 10 -6 21 5 25 15 38 15 21 0 -19 15 -14 43 14 15 15 24
32 20 42 -4 15 -3 15 6 2 9 -13 11 -13 11 3 0 9 4 17 10 17 5 0 8 -10 6 -22z
m-126 -95 c0 -8 -5 -13 -12 -11 -18 6 -21 25 -3 25 8 0 15 -7 15 -14z m0 -47
c0 -2 -7 -6 -15 -10 -8 -3 -15 -1 -15 4 0 6 7 10 15 10 8 0 15 -2 15 -4z
m1707 -48 c23 -21 23 -24 23 -255 l0 -234 -25 -24 c-33 -33 -70 -32 -106 4
l-29 29 0 227 0 226 25 24 c31 32 80 33 112 3z m-1787 -8 c0 -5 -4 -10 -10
-10 -5 0 -10 5 -10 10 0 6 5 10 10 10 6 0 10 -4 10 -10z m-19 -31 c9 -18 8
-20 -9 -15 -20 7 -38 -17 -26 -35 3 -5 2 -9 -3 -10 -4 0 -15 -2 -23 -4 -11 -2
-17 6 -18 22 -2 20 1 23 11 14 19 -15 30 -1 14 17 -10 13 -9 15 5 10 10 -4 19
-1 22 8 7 19 13 18 27 -7z m39 7 c0 -11 -19 -15 -25 -6 -3 5 1 10 9 10 9 0 16
-2 16 -4z m-130 -12 c0 -8 -19 -13 -24 -6 -3 5 1 9 9 9 8 0 15 -2 15 -3z m-24
-101 c-10 -10 -19 5 -10 18 6 11 8 11 12 0 2 -7 1 -15 -2 -18z m-66 -78 c-15
-17 -30 -20 -30 -4 0 5 4 8 9 4 5 -3 13 0 17 6 4 6 -1 16 -10 21 -9 5 -14 14
-10 19 3 6 12 1 21 -11 12 -16 12 -24 3 -35z m77 49 c-3 -3 -12 -4 -19 -1 -8
3 -5 6 6 6 11 1 17 -2 13 -5z m-154 -49 c-3 -9 -8 -14 -10 -11 -3 3 -2 9 2 15
9 16 15 13 8 -4z m32 -45 c-8 -9 -13 -19 -10 -22 3 -3 -4 -8 -15 -11 -13 -3
-28 2 -40 16 -27 28 -26 43 1 16 11 -11 24 -17 27 -12 4 4 12 12 17 16 6 5 3
7 -7 3 -10 -3 -18 -1 -18 3 0 13 21 19 43 13 16 -4 16 -6 2 -22z m-91 -76 c9
-24 8 -25 -13 -12 -11 7 -17 16 -15 20 8 13 21 9 28 -8z m-35 -18 c10 -12 8
-13 -8 -9 -24 6 -29 -12 -6 -21 8 -3 15 -11 14 -18 0 -10 -2 -10 -6 0 -6 15
-43 16 -43 1 0 -5 -4 -8 -9 -5 -15 10 -1 43 22 54 12 6 23 11 23 11 1 1 7 -5
13 -13z m-79 -76 c0 -4 -6 -13 -14 -20 -12 -9 -15 -8 -13 8 1 17 27 28 27 12z
m-59 -37 c-12 -20 -14 -14 -5 12 4 9 9 14 11 11 3 -2 0 -13 -6 -23z m99 22 c0
-2 -7 -8 -15 -15 -12 -10 -15 -10 -15 2 0 8 7 15 15 15 8 0 15 -1 15 -2z
m3313 -7 c32 -17 46 -39 47 -73 0 -25 -25 -54 -163 -192 -146 -147 -166 -163
-197 -163 -46 0 -80 33 -80 78 0 31 15 49 143 179 177 181 201 198 250 171z
m-3373 -23 c0 -2 -10 -9 -22 -15 -22 -11 -22 -10 -4 4 21 17 26 19 26 11z
m-50 -37 c0 -5 -7 -7 -15 -4 -11 4 -19 -3 -25 -19 -10 -27 -19 -33 -16 -10 5
35 56 66 56 33z m1257 -151 c143 -143 163 -168 163 -196 0 -43 -38 -81 -81
-81 -29 0 -53 20 -198 164 -142 142 -164 168 -164 195 0 44 37 81 82 81 33 0
49 -13 198 -163z m-1318 82 c1 -4 -16 -7 -36 -7 l-38 0 28 14 c15 8 27 20 28
27 0 11 17 -19 18 -34z m-79 -38 c0 -5 -9 -7 -20 -4 -11 3 -20 7 -20 9 0 2 9
4 20 4 11 0 20 -4 20 -9z m-40 -41 c0 -5 -5 -10 -11 -10 -5 0 -7 5 -4 10 3 6
8 10 11 10 2 0 4 -4 4 -10z m-2 -41 c-20 -13 -28 -11 -22 5 3 8 12 12 21 9 12
-5 12 -7 1 -14z m2667 -38 c336 -88 602 -358 687 -697 28 -113 31 -322 5 -426
-82 -334 -320 -594 -637 -696 -97 -31 -172 -42 -292 -42 -252 0 -480 93 -657
269 -125 123 -204 256 -253 427 -20 69 -23 102 -23 249 0 178 5 211 57 345 59
155 210 344 349 435 117 79 263 136 404 158 69 12 281 -2 360 -22z m-2694 -2
c-11 -9 -17 -19 -14 -23 4 -3 1 -6 -6 -6 -8 0 -11 6 -7 16 3 9 6 19 6 24 0 5
9 8 21 7 l21 -1 -21 -17z m-56 -9 c11 -17 -9 -40 -25 -30 -10 6 -11 10 -3 10
7 0 10 7 7 15 -7 17 11 21 21 5z m1362 -932 c32 -30 31 -81 -2 -113 l-24 -25
-226 0 -227 0 -29 29 c-36 36 -37 73 -4 106 l24 25 232 0 c225 0 233 -1 256
-22z m2810 2 c30 -27 36 -55 21 -87 -23 -48 -46 -53 -271 -53 -163 0 -214 3
-236 15 -48 24 -56 81 -16 120 l24 25 229 0 c213 0 230 -1 249 -20z m-2439
-803 c7 -15 10 -37 6 -50 -11 -36 -313 -335 -346 -342 -53 -12 -108 47 -92 99
9 28 304 323 335 335 33 12 81 -9 97 -42z m1769 -169 c90 -90 166 -173 169
-184 13 -53 -43 -104 -98 -91 -13 4 -94 78 -180 165 -138 139 -158 162 -158
191 0 40 38 81 76 81 22 0 60 -32 191 -162z m-928 -164 c20 -25 21 -39 21
-253 0 -212 -1 -229 -20 -248 -27 -30 -55 -36 -87 -21 -48 23 -53 46 -53 271
0 255 6 274 87 276 23 1 37 -6 52 -25z m-1374 -986 c14 -6 25 -15 25 -21 0 -5
-8 -6 -17 -1 -10 4 -39 9 -65 12 -42 3 -51 1 -78 -26 -26 -26 -30 -38 -30 -82
0 -44 4 -56 29 -81 23 -22 39 -29 70 -29 66 0 91 17 91 62 l0 38 -45 0 c-25 0
-45 5 -45 10 0 11 69 14 94 4 11 -4 16 -19 16 -50 0 -39 -4 -47 -32 -64 -63
-38 -153 -19 -183 40 -8 16 -15 50 -15 76 0 41 5 51 39 85 32 33 45 39 79 39
23 0 53 -5 67 -12z m274 -2 c41 -22 65 -64 65 -116 0 -79 -53 -130 -134 -130
-32 0 -48 7 -78 34 -35 33 -37 38 -37 96 0 58 2 63 37 96 30 27 46 34 78 34
23 0 54 -7 69 -14z m302 -9 c22 -15 39 -38 49 -65 52 -151 -162 -243 -235
-102 -61 118 76 241 186 167z m256 6 c96 -45 96 -181 0 -226 -20 -10 -59 -17
-91 -17 l-56 0 0 130 0 130 56 0 c32 0 71 -7 91 -17z m239 -65 c52 -159 46
-157 89 -29 20 62 40 109 44 106 3 -4 22 -54 42 -113 l35 -106 32 87 c17 48
34 98 38 112 3 14 10 25 15 25 5 0 9 -1 9 -3 0 -8 -79 -238 -85 -248 -11 -17
-21 3 -56 116 l-32 100 -37 -110 c-20 -60 -41 -109 -45 -108 -6 1 -90 222 -95
251 0 1 4 2 9 2 5 0 22 -37 37 -82z m524 72 c0 -6 -33 -10 -80 -10 l-80 0 0
-50 0 -50 75 0 c43 0 75 -4 75 -10 0 -6 -32 -10 -75 -10 l-75 0 0 -50 0 -50
80 0 c47 0 80 -4 80 -10 0 -6 -37 -10 -90 -10 l-90 0 0 130 0 130 90 0 c53 0
90 -4 90 -10z m175 -27 c68 -141 103 -223 95 -223 -5 0 -16 16 -24 35 l-15 35
-79 0 -78 0 -18 -36 c-9 -20 -20 -34 -23 -30 -7 7 107 256 117 256 3 0 15 -17
25 -37z m315 27 c0 -5 -20 -10 -45 -10 l-45 0 0 -121 c0 -77 -4 -118 -10 -114
-6 4 -10 55 -10 121 l0 114 -46 0 c-27 0 -43 4 -39 10 3 6 48 10 101 10 56 0
94 -4 94 -10z m60 -56 l0 -54 80 0 80 0 0 60 c0 33 4 60 10 60 6 0 10 -50 10
-130 0 -80 -4 -130 -10 -130 -6 0 -10 27 -10 60 l0 60 -80 0 -80 0 0 -54 c0
-30 -4 -58 -10 -61 -6 -4 -10 40 -10 125 0 85 4 129 10 125 6 -3 10 -31 10
-61z m420 56 c0 -6 -33 -10 -80 -10 l-80 0 0 -50 0 -50 70 0 c40 0 70 -4 70
-10 0 -6 -30 -10 -70 -10 l-70 0 0 -50 0 -50 80 0 c47 0 80 -4 80 -10 0 -6
-37 -10 -90 -10 l-90 0 0 130 0 130 90 0 c53 0 90 -4 90 -10z m210 -5 c52 -27
52 -93 0 -120 -17 -9 -30 -18 -30 -22 0 -3 16 -25 35 -49 36 -44 41 -54 27
-54 -5 0 -26 25 -48 55 -37 51 -42 55 -81 55 l-43 0 0 -49 c0 -28 -4 -53 -10
-56 -6 -4 -10 40 -10 124 l0 131 65 0 c39 0 78 -6 95 -15z"/>
<path d="M1397 829 c-43 -25 -60 -106 -32 -159 20 -38 43 -50 97 -50 36 0 50
6 72 28 49 53 42 136 -16 176 -25 18 -94 21 -121 5z"/>
<path d="M1684 822 c-45 -36 -57 -98 -29 -152 20 -38 43 -50 98 -50 102 0 145
128 66 194 -37 31 -102 35 -135 8z"/>
<path d="M1950 731 l0 -111 51 0 c85 0 129 40 129 115 0 24 -9 45 -29 67 -24
27 -36 32 -90 36 l-61 4 0 -111z"/>
<path d="M2953 760 l-32 -70 69 0 68 0 -31 70 c-18 38 -34 70 -37 70 -3 -1
-19 -32 -37 -70z"/>
<path d="M3880 785 l0 -55 63 0 c69 0 97 17 97 57 0 36 -31 53 -98 53 l-62 0
0 -55z"/>
<path d="M885 4810 c3 -5 8 -10 11 -10 2 0 4 5 4 10 0 6 -5 10 -11 10 -5 0 -7
-4 -4 -10z"/>
<path d="M720 4650 c0 -5 5 -10 11 -10 5 0 7 5 4 10 -3 6 -8 10 -11 10 -2 0
-4 -4 -4 -10z"/>
<path d="M387 4333 c-10 -9 -9 -23 2 -23 5 0 11 7 15 15 5 15 -5 20 -17 8z"/>
<path d="M23 3973 c-15 -5 -17 -23 -4 -23 5 0 11 7 15 15 3 8 4 15 3 14 -1 0
-8 -3 -14 -6z"/>
</g>
</svg>
