<?xml version="1.0" encoding="utf-8"?>
<!-- Generator: Adobe Illustrator 25.2.0, SVG Export Plug-In . SVG Version: 6.00 Build 0)  -->
<svg version="1.1" id="레이어_1" xmlns="http://www.w3.org/2000/svg" xmlns:xlink="http://www.w3.org/1999/xlink" x="0px"
	 y="0px" viewBox="0 0 700 700" style="enable-background:new 0 0 700 700;" xml:space="preserve">
<style type="text/css">
	.st0{fill:#FFFFFF;}
</style>
<g>
	<path class="st0" d="M692.01,658.46c3.06,13.86-4.49,23.13-13.91,31.37c-1.65,1.44-4.52,2.06-6.83,2.08
		c-20.5,0.16-40.99,0.09-61.49,0.09c-83.49,0-166.98,0-250.47,0c-103.16,0-206.31-0.01-309.47,0.02c-4.2,0-8.47,0.56-10.1-4.82
		c-0.21-0.68-1.17-1.14-1.79-1.7c-12.29-11.04-14.16-24.52-5.72-38.52c20.03-33.21,40.7-66.06,59.65-99.88
		c22.19-39.61,43.22-79.89,64.04-120.25c19-36.83,35.54-74.83,49.25-113.96c10.47-29.9,17.59-60.71,22.47-92.02
		c0.79-5.08,1.06-10.28,1.15-15.43c0.29-17.55,19.79-30.73,35.58-23.19c10.58,5.05,20.47,11.59,30.47,17.77
		c3.14,1.95,5.86,2.34,8.71,0.23c14.42-10.69,30.89-14.3,48.47-14.2c11.66,0.07,23.33-0.04,34.99,0.15
		c6.11,0.1,11.69,1.89,16.65,5.82c7.59,6.01,8.84,5.62,17.09,0.19c6.08-4,12.31-8.2,19.07-10.63c18.02-6.46,34.64,4.05,37.51,22.96
		c2.78,18.26,4.31,36.8,8.54,54.71c8.09,34.25,21.31,66.88,35.64,98.92c19.36,43.29,40.67,85.61,64.38,126.76
		c31.03,53.85,64.78,105.95,99.03,157.76C684.91,642.71,690.72,652.59,692.01,658.46z M283.69,257.31
		c-0.77-17.86-5.1-28.86-13.21-36.01c-2.08-1.84-5.39-3.57-7.84-3.24c-1.56,0.21-2.71,4.28-3.81,6.72c-0.53,1.18-0.55,2.6-0.79,3.9
		c-3.21,16.97-5.5,34.19-9.81,50.88c-14.3,55.36-37.04,107.5-63.07,158.2c-9.05,17.63-5.88,33.78,2.6,49.88
		c4.11,7.8,9.8,9.12,16.89,3.73c6.03-4.58,11.64-9.98,16.5-15.79c15.28-18.26,29.99-37.01,45.21-55.32
		c6.84-8.23,15.55-14.03,26.09-16.71c20.32-5.18,37.85,3.86,40.93,24.19c0.62,4.1,1.69,8.15,2.87,12.14
		c1.83,6.21,6.34,8.97,12.25,6.5c4.08-1.7,8.79-4.41,10.84-8.02c7.15-12.54,13.19-25.71,19.79-38.57
		c5.07-9.89,9.79-20.03,15.67-29.43c5.74-9.19,14.98-12.68,25.78-12.29c9.36,0.33,17.88,3.04,24.52,9.64
		c7.89,7.84,15.71,15.85,22.65,24.5c9.89,12.33,18.8,25.44,28.45,37.97c6.32,8.2,13.21,15.95,23.45,19.58
		c3.01,1.07,6.15,4.12,9.17,1.02c3.24-3.32-0.03-6.5-1.49-9.44c-11.26-22.63-23-45.04-33.88-67.86
		c-17.71-37.18-32.7-75.38-40.1-116.16c-2.11-11.62-3.92-23.3-6.22-34.88c-1.24-6.26-3.75-7.39-9.1-3.8
		c-4.07,2.73-7.64,6.37-10.95,10.04c-5.2,5.76-6.58,12.7-4.13,20.05c4.55,13.63,9.94,26.81,20.03,37.56
		c4.69,4.99,5.09,11.1,2.31,17.22c-2.58,5.67-7.58,7.54-13.48,7.7c-5.63,0.16-9.82-2.49-13.48-6.46
		c-20.24-21.94-28.78-48.62-31.27-77.66c-0.67-7.82-2.38-9.99-10.34-10.05c-7.83-0.05-15.76-0.78-23.47,0.19
		c-9.32,1.16-18.53,3.5-27.64,5.89c-5.39,1.41-7.69,5.49-7.91,11.3c-0.38,10.13-1.23,20.26-2.26,30.36
		c-2.01,19.74-9.97,37.49-18.91,54.88c-3.42,6.66-6.47,13.54-10.41,19.88c-5.44,8.76-16.43,9.38-23.42,1.82
		c-5.57-6.03-6.24-12.09-1.17-20.06c8.04-12.62,13.96-26.15,17.7-40.54C281.63,271.61,282.79,262.18,283.69,257.31z"/>
	<path class="st0" d="M317.18,174c-7.58,0.09-14.3-5.89-16.05-14.5c-1.29-6.36-2.18-12.8-3.53-19.14
		c-6.59-30.89-20.69-57.76-43.18-80.09c-2.13-2.11-4.31-4.18-6.28-6.43c-6.16-7.01-6.17-15.25-0.15-21.53
		c5.81-6.06,14.1-6.59,21.14-0.81c14.15,11.61,25.79,25.39,35.44,40.98c14.96,24.16,23.64,50.67,28.11,78.38
		C334.58,162.62,328.24,173.88,317.18,174z"/>
	<path class="st0" d="M403.53,174c-6.86,0.1-14.27-5.31-15.24-12.04c-0.72-4.97-1.03-10.29-0.05-15.16
		c5.1-25.36,12.01-50.18,25.93-72.37c10.13-16.15,22.05-30.89,36.79-43.12c7.19-5.97,16.41-4.76,22.05,2.42
		c4.37,5.56,4.64,12.91,0.2,18.45c-3.32,4.14-7.1,7.92-10.78,11.76c-25.06,26.18-39.03,57.52-43.4,93.32
		C417.88,166.73,411.32,173.89,403.53,174z"/>
	<path class="st0" d="M184.77,78c25.25-0.88,48.39,4.98,69.91,16.27c18.45,9.68,30.76,24.71,33.97,46
		c0.99,6.54-0.68,12.33-6.3,16.33c-4.89,3.48-10.26,3.7-15.62,1.14c-4.68-2.23-7.37-6.19-8.4-11.17
		c-2.19-10.53-8.52-17.84-17.61-23.05c-15.07-8.63-31.6-12.11-48.67-13.49c-6.8-0.55-13.63-0.63-20.45-1.01
		c-9.23-0.52-15.68-7.12-15.39-15.65c0.31-8.99,6.52-15.11,15.75-15.36C176.47,77.9,180.97,78,184.77,78z"/>
	<path class="st0" d="M523.95,77.61c4.28,0.43,8.7,0.33,12.82,1.39c8.07,2.09,12.3,8.89,11.29,17.01
		c-0.91,7.33-7.3,13.03-15.38,12.92c-15.87-0.23-31.14,2.56-45.9,8.23c-13.62,5.23-23.2,13.83-25.25,29.31
		c-1.03,7.81-7.36,12.74-14.9,12.95c-6.96,0.19-12.45-4.39-14.68-11.92c-1.96-6.62-0.49-12.89,1.66-19.06
		c7.96-22.83,25.44-35.48,47.12-43.37C494.66,80.01,509.19,78.31,523.95,77.61z"/>
	<path class="st0" d="M375.83,93.53c0,15.15,0.06,30.31-0.03,45.46c-0.04,6.42-0.77,12.66-6.42,17.08
		c-4.63,3.62-9.59,4.32-14.99,2.2c-5.41-2.13-8.67-6.03-9.41-11.84c-0.3-2.3-0.45-4.64-0.46-6.97c-0.14-30.13-0.26-60.27-0.31-90.4
		c0-3.14,0.22-6.34,0.84-9.42c1.47-7.32,7.79-12.3,14.99-12.14c8.01,0.18,13.65,4.82,14.99,12.63c0.53,3.1,0.76,6.28,0.78,9.43
		C375.88,64.23,375.83,78.88,375.83,93.53z"/>
</g>
</svg>
