<?xml version="1.0" encoding="utf-8"?>
<!-- Generator: Adobe Illustrator 25.2.0, SVG Export Plug-In . SVG Version: 6.00 Build 0)  -->
<svg version="1.1" id="레이어_1" xmlns="http://www.w3.org/2000/svg" xmlns:xlink="http://www.w3.org/1999/xlink" x="0px"
	 y="0px" viewBox="0 0 700 700" style="enable-background:new 0 0 700 700;" xml:space="preserve">
<style type="text/css">
	.st0{fill:#FFFFFF;}
</style>
<g>
	<path class="st0" d="M350.77,159.17c108.15,0,195.96,88.47,195.68,197.67c-0.28,107.26-89.78,195.73-198.64,194.84
		c-105.33-0.86-193.4-89.83-193.31-196.82C154.58,247.38,243.07,159.16,350.77,159.17z M490.17,355.69
		c0-76.86-62.15-139.28-138.03-140c-76.91-0.73-141.27,61.91-141.3,138.82c-0.04,76.87,62.27,140.48,137.62,140.5
		C427.43,495.01,490.17,433.34,490.17,355.69z"/>
	<path class="st0" d="M628.22,383.83c-9.33,0-18.66,0.06-27.99-0.01c-16.27-0.13-28.94-12.43-29.06-28.13
		c-0.13-16.26,12.15-28.56,28.88-28.66c18.82-0.12,37.65-0.06,56.47-0.02c18.02,0.03,30.3,11.74,30.29,28.78
		c-0.01,15.96-12.2,27.61-29.61,28C647.54,384.01,637.88,383.83,628.22,383.83z"/>
	<path class="st0" d="M69.45,327c10,0,19.99-0.17,29.99,0.04c14.19,0.3,25.66,9.97,27.52,22.89c2.21,15.39-5.33,28.7-19.32,32.35
		c-6.17,1.61-12.85,1.57-19.31,1.64c-15.65,0.17-31.32-0.39-46.96,0.01c-15.41,0.4-29.65-11.98-29.41-28.55
		c0.24-16.49,12.34-28.35,29.51-28.38C50.79,326.98,60.12,327,69.45,327z"/>
	<path class="st0" d="M202.23,178.99c-0.38,11.94-6.04,20.71-16.82,25.55c-10.84,4.86-21.5,3.45-30.13-4.83
		c-14.9-14.29-29.46-28.94-43.78-43.82c-8.19-8.51-10.22-18.96-5.94-30.07c4.27-11.09,13.21-16.62,24.59-17.6
		c8.29-0.71,15.73,2.67,21.67,8.52c14.35,14.15,28.6,28.4,42.74,42.76C199.79,164.8,202.42,171.37,202.23,178.99z"/>
	<path class="st0" d="M526.87,207.11c-11.66-0.53-20.41-5.87-25.33-16.48c-4.91-10.59-4.17-21.29,3.97-29.81
		c15.17-15.91,30.74-31.47,46.8-46.48c10.05-9.39,26.25-7.68,36.7,2.54c9.68,9.46,11.41,27.13,2.23,36.93
		c-15.25,16.29-31.27,31.86-47.25,47.45C539.46,205.7,533.32,207.21,526.87,207.11z"/>
	<path class="st0" d="M378.83,76.02c0,8.82,0.03,17.64-0.01,26.46c-0.07,17.19-11.5,29.41-27.71,29.68
		c-16.34,0.27-28.45-11.3-28.84-28.53c-0.43-18.8-0.45-37.62,0.01-56.42c0.41-16.83,13.18-28.58,29.4-28.05
		c15.49,0.51,27.07,13.03,27.13,29.38C378.86,57.71,378.83,66.86,378.83,76.02z"/>
	<path class="st0" d="M378.83,634.79c0,9.49,0.11,18.98-0.03,28.47c-0.2,13.57-8.67,24.46-21.16,27.5
		c-12.81,3.12-25.85-2.23-31.83-13.85c-2.13-4.13-3.39-9.16-3.49-13.8c-0.39-18.47-0.31-36.96-0.11-55.44
		c0.16-14.75,9.27-26.08,22.4-28.57c13.61-2.58,26.66,4.01,31.8,16.6c1.53,3.74,2.15,8.04,2.3,12.12
		C379.06,616.79,378.83,625.79,378.83,634.79z"/>
	<path class="st0" d="M597.05,575.65c-0.52,10.3-5.93,19.24-17.01,24.23c-11.2,5.04-22.62,2.85-31.24-5.71
		c-13.22-13.13-26.33-26.37-39.54-39.5c-8.42-8.37-11.59-17.96-7.49-29.51c6.98-19.64,30.59-25.84,45.83-11.55
		c14.2,13.31,27.9,27.15,41.68,40.9C594.57,559.78,597.04,566.39,597.05,575.65z"/>
	<path class="st0" d="M134.2,602.21c-13.98-0.19-22.96-5.76-27.78-17.24c-4.76-11.34-3.39-21.79,5.68-30.68
		c14.13-13.86,28.11-27.88,42.46-41.5c10.51-9.98,27.41-9.17,37.88,1.27c10.52,10.48,11.6,27.42,1.61,37.88
		c-14.35,15.04-29.17,29.63-43.98,44.23C145.36,600.82,139.21,602.41,134.2,602.21z"/>
</g>
</svg>
