<?xml version="1.0" encoding="utf-8"?>
<!-- Generator: Adobe Illustrator 25.2.0, SVG Export Plug-In . SVG Version: 6.00 Build 0)  -->
<svg version="1.1" id="레이어_1" xmlns="http://www.w3.org/2000/svg" xmlns:xlink="http://www.w3.org/1999/xlink" x="0px"
	 y="0px" viewBox="0 0 700 700" style="enable-background:new 0 0 700 700;" xml:space="preserve">
<style type="text/css">
	.st0{fill:#FFFFFF;}
</style>
<g>
	<path class="st0" d="M349.62,491.17c-41.66,0-83.32,0-124.98,0c-20.16,0-40.39,1.18-60.45-0.23
		c-36.77-2.57-65.34-20.57-87.17-49.97C59.71,417.65,55.23,391.23,56.44,363c1.73-40.3,20.43-70.88,53.52-92.54
		c18.57-12.15,39.26-19.56,62.1-19.01c10.35,0.25,11.12-0.98,12.91-11.43c10.18-59.57,42.93-102.57,97.36-128
		c25.47-11.9,53.52-12.92,81.37-11.29c14.93,0.87,30,1.31,44.11,7.27c59.23,25.03,94.78,69.1,106.26,132.43
		c1.81,9.99,2.65,11.15,12.86,11.03c52.59-0.62,108,42.91,115.36,101.04c6.6,52.1-11.84,92.59-55.3,121.03
		c-18.34,12.01-39.18,18.31-61.88,18.13c-58.5-0.47-117-0.16-175.5-0.16C349.62,491.39,349.62,491.28,349.62,491.17z M349.45,447.5
		c56.48,0,112.96,0.09,169.45-0.11c7.59-0.03,15.36-0.81,22.74-2.56c34.3-8.1,58.07-38.03,58.53-73.03
		c0.45-33.64-22.92-64-56.34-73.16c-14.5-3.98-29.3-3.85-44.14-3.13c-14.58,0.71-25.32-9.51-25.18-24
		c0.13-13.9-1.47-27.54-5.51-40.89c-15.07-49.79-59.32-85.43-110.09-88.57c-53.14-3.29-101.79,25.72-123.28,73.53
		c-8.27,18.4-11.4,37.78-11.18,57.85c0.13,12.11-10.47,21.75-22.44,21.85c-13.29,0.12-26.87-0.47-39.8,1.99
		c-29.49,5.61-50.26,22.39-59.53,51.89c-9.23,29.39-1.21,54.71,19.18,76.25c15.1,15.96,35.04,21.96,56.64,22.03
		C235.48,447.61,292.47,447.5,349.45,447.5z"/>
</g>
</svg>
