<?xml version="1.0" encoding="utf-8"?>
<!-- Generator: Adobe Illustrator 25.2.0, SVG Export Plug-In . SVG Version: 6.00 Build 0)  -->
<svg version="1.1" id="레이어_1" xmlns="http://www.w3.org/2000/svg" xmlns:xlink="http://www.w3.org/1999/xlink" x="0px"
	 y="0px" viewBox="0 0 700 700" style="enable-background:new 0 0 700 700;" xml:space="preserve">
<style type="text/css">
	.st0{fill:#FFFFFF;}
</style>
<g>
	<path class="st0" d="M349.56,491.17c-40.99,0-81.99,0-122.98,0c-20.82,0-41.73,1.21-62.45-0.24
		c-36.76-2.57-65.34-20.58-87.14-50.02c-19.5-26.32-22.89-56.08-19.67-87.43c3.79-36.87,23.24-64.08,53.55-83.58
		c18.06-11.61,38.13-18.86,60.26-18.45c11.59,0.22,11.96-0.67,13.93-11.99c10.33-59.32,43.07-102.15,97.34-127.47
		c25.32-11.82,53.21-12.87,80.88-11.3c15.09,0.86,30.33,1.28,44.61,7.32c59.21,25.07,94.75,69.15,106.2,132.48
		c1.8,9.96,2.62,11.08,12.92,10.97c52.5-0.59,107.96,42.89,115.3,101.1c6.57,52.1-11.89,92.57-55.36,121.01
		c-18.36,12.01-39.2,18.27-61.9,18.09c-58.5-0.46-117-0.15-175.5-0.15C349.56,491.39,349.56,491.28,349.56,491.17z M350,447.5
		c56.32,0,112.63,0.09,168.95-0.11c7.43-0.03,15.02-0.8,22.25-2.47c34.39-7.93,58.26-37.62,58.97-72.67
		c0.68-33.75-22.81-64.43-56.39-73.62c-14.5-3.97-29.3-3.83-44.14-3.11c-14.53,0.71-25.27-9.55-25.13-24.06
		c0.13-13.9-1.48-27.54-5.53-40.89c-15.09-49.78-59.4-85.43-110.13-88.52c-53.19-3.24-101.78,25.76-123.25,73.58
		c-8.26,18.41-11.38,37.78-11.16,57.86c0.13,12.09-10.48,21.69-22.49,21.8c-13.29,0.12-26.87-0.47-39.8,2
		c-29.48,5.63-50.25,22.42-59.49,51.93c-9.21,29.4-1.16,54.71,19.23,76.23c15.11,15.95,35.05,21.93,56.65,21.99
		C235.7,447.61,292.85,447.5,350,447.5z"/>
	<path class="st0" d="M371.17,554.68c0,5.32,0.1,10.64-0.02,15.96c-0.2,8.3-4.87,13.58-12.1,16.75c-7.63,3.35-15.21,3.62-22.13-1.83
		c-6.23-4.91-9.63-11.39-9.72-19.39c-0.09-8.97-0.21-17.96,0.02-26.93c0.32-12.55,10.54-22.37,22.8-22.24
		c11.94,0.12,21.64,10.19,21.8,22.71c0.06,4.99,0.01,9.97,0.01,14.96C371.61,554.68,371.39,554.68,371.17,554.68z"/>
	<path class="st0" d="M411.83,593.06c0-5.15-0.14-10.31,0.03-15.45c0.26-7.82,4.61-13.01,11.41-16.2c7.33-3.44,14.82-4.16,21.79,0.8
		c6.57,4.68,10.39,11.08,10.46,19.41c0.07,8.63,0.24,17.27,0.31,25.9c0.12,15.78-12.76,26.44-28.13,23.33
		c-9.11-1.84-16.62-12.11-16.69-22.84c-0.03-4.98-0.01-9.96-0.01-14.94C411.28,593.06,411.55,593.06,411.83,593.06z"/>
	<path class="st0" d="M539.01,554.03c0,5.32,0.04,10.65-0.01,15.97c-0.07,8.03-4.13,13.52-11.15,16.91
		c-7.31,3.54-14.77,4.36-21.85-0.41c-6.55-4.42-10.75-10.69-10.84-18.73c-0.13-10.97,0-21.98,0.78-32.92
		c0.77-10.85,11.04-18.44,23.15-18.01c9.5,0.33,19.68,10.23,20.03,19.71c0.21,5.82,0.04,11.65,0.04,17.48
		C539.11,554.03,539.06,554.03,539.01,554.03z"/>
</g>
</svg>
