<?xml version="1.0" encoding="utf-8"?>
<!-- Generator: Adobe Illustrator 25.2.0, SVG Export Plug-In . SVG Version: 6.00 Build 0)  -->
<svg version="1.1" id="레이어_1" xmlns="http://www.w3.org/2000/svg" xmlns:xlink="http://www.w3.org/1999/xlink" x="0px"
	 y="0px" viewBox="0 0 700 700" style="enable-background:new 0 0 700 700;" xml:space="preserve">
<style type="text/css">
	.st0{fill:#FFFFFF;}
</style>
<g>
	<path class="st0" d="M457.62,632.19c-60.02-1.33-116.72-19-171.15-45.73c-41.94-20.6-79.66-47.09-113.22-79.4
		c-12.44-11.97-23.79-25.16-34.81-38.48c-8.09-9.78-6.36-20.27,3.07-28.74c6.33-5.69,13.78-8.37,22.22-9.03
		c15.77-1.24,31.68-1.77,47.22-4.44c14.84-2.55,29.52-6.73,43.85-11.46c24.87-8.21,48.52-18.99,70.03-34.42
		c15.96-11.45,29.15-25.2,40.43-41.08c7.51-10.57,12.51-11.28,23.36-4.36c4.75,3.03,9.79,5.66,14.9,8.07
		c7.06,3.34,9.35,8.08,5.04,14.75c-7.01,10.86-14.16,21.81-22.63,31.52c-17.79,20.39-38.96,37.12-63.24,48.92
		c-24.35,11.84-49.4,22.44-75.99,28.6c-9.08,2.1-18.24,3.85-27.26,6.13c-2.09,0.53-4.94,2.32-5.35,4.02
		c-0.41,1.72,1.27,4.71,2.92,6.04c11.82,9.48,23.84,18.7,35.85,27.94c3.88,2.98,8.21,3.54,12.68,1.41
		c12.59-5.99,25.06-12.23,37.78-17.9c2.65-1.18,7-1.56,9.13-0.15c3.14,2.08,1.18,5.77-0.81,8.36c-5.77,7.51-11.48,15.07-17.55,22.33
		c-4.75,5.68-4.86,8.32,1.61,11.63c11.97,6.12,24.08,12,36.37,17.43c6.61,2.92,13.66,2.33,20.5-0.19
		c23.6-8.68,44.09-22.47,63.28-38.4c2.82-2.34,5.42-4.94,8.19-7.33c2.47-2.13,5.34-4.28,8.39-1.56c2.88,2.57,4.29,6.2,2.12,9.94
		c-6.85,11.8-13.69,23.61-20.92,35.18c-3.61,5.77-8.14,10.96-12.1,16.52c-3.97,5.56-2.81,8.84,3.9,10.38
		c12.65,2.89,25.36,5.56,38.06,8.23c5.74,1.2,10.21-0.61,13.98-5.39c17.01-21.6,30.05-45.52,41.45-70.39
		c9.15-19.95,17.97-40.05,26.75-60.17c1.92-4.39,2.74-9.27,4.64-13.67c3.21-7.44,6.58-14.83,10.45-21.94
		c2.46-4.53,6.81-5.38,11.72-3.66c6.74,2.35,13.54,4.55,20.33,6.76c8.37,2.73,11.97,8.27,8.96,16.54
		c-7.1,19.52-14.73,38.85-22.53,58.11c-4.99,12.32-10.22,24.59-16.12,36.5c-15.76,31.78-32.89,62.75-54.23,91.26
		c-6.57,8.78-14.39,12.95-25.19,11.68C462.03,632.36,460.36,632.35,457.62,632.19z"/>
	<path class="st0" d="M604.77,363.51c-1.25,4.79-2.54,11.31-4.71,17.51c-2.2,6.29-7.71,8.62-14.12,6.83
		c-0.96-0.27-1.9-0.64-2.8-1.05c-33.8-15.28-67.53-30.72-101.41-45.82c-24.3-10.83-48.81-21.16-73.16-31.88
		c-4.39-1.93-8.59-4.42-12.63-7.03c-4.83-3.11-5.91-8.73-2.53-12.98c10.18-12.84,22.26-23.38,37.57-29.77
		c7.54-3.14,15.2-3.7,23.44-2.71c20.77,2.49,39.09,11.67,57.81,19.86c16,7,32.08,13.82,47.97,21.07
		C587.6,310.07,600.99,332.41,604.77,363.51z"/>
	<path class="st0" d="M628.89,93.07c-1.32,5.98-2.08,12.17-4.07,17.92c-8.11,23.37-16.76,46.56-24.9,69.92
		c-6.5,18.66-12.47,37.51-18.87,56.21c-2.63,7.7-5.72,15.24-8.67,22.83c-4.59,11.78-18.43,12.41-27.76,8.19
		c-12.87-5.82-25.51-12.17-38.2-18.38c-5.88-2.88-8-7.86-5.78-14.13c1.32-3.74,3.25-7.28,5.11-10.8
		c11.42-21.61,22.76-43.26,34.4-64.75c13.68-25.28,27.5-50.49,41.55-75.57c4.42-7.9,11.36-12.83,20.66-14.12
		C617.92,68.24,628.3,77.21,628.89,93.07z"/>
	<path class="st0" d="M187.5,378.48c-30.93,0.14-56.31-25.08-56.48-56.1c-0.16-30.99,24.85-56.24,56.01-56.53
		c31.1-0.29,56.8,25.19,56.78,56.3C243.79,353.08,218.54,378.34,187.5,378.48z"/>
	<path class="st0" d="M100.74,158.99c18.58,0.07,33.62,15.15,33.69,33.78c0.07,18.74-15.2,34.16-33.89,34.21
		c-19.04,0.06-34.15-15.21-34.06-34.42C66.57,173.65,81.61,158.91,100.74,158.99z"/>
	<path class="st0" d="M197.72,227.13c-12.93-0.07-23.46-10.65-23.43-23.55c0.03-13.16,10.67-23.67,23.88-23.6
		c13.04,0.07,23.31,10.46,23.29,23.55C221.44,216.9,211.07,227.21,197.72,227.13z"/>
</g>
</svg>
