<?xml version="1.0" encoding="utf-8"?>
<!-- Generator: Adobe Illustrator 25.2.0, SVG Export Plug-In . SVG Version: 6.00 Build 0)  -->
<svg version="1.1" id="레이어_1" xmlns="http://www.w3.org/2000/svg" xmlns:xlink="http://www.w3.org/1999/xlink" x="0px"
	 y="0px" viewBox="0 0 700 700" style="enable-background:new 0 0 700 700;" xml:space="preserve">
<style type="text/css">
	.st0{fill:#FFFFFF;}
</style>
<g>
	<g>
		<path class="st0" d="M243.58,477.83c40.49,0,80.99,0.02,121.48-0.04c3.14,0,6.35-0.24,9.41-0.93
			c9.72-2.17,16.84-10.76,16.69-19.77c-0.14-8.68-7.97-17.21-17.66-18.98c-2.76-0.5-5.63-0.58-8.45-0.58
			c-60.16-0.03-120.31,0-180.47-0.07c-3.46,0-7.05-0.25-10.35-1.17c-11.16-3.12-17.16-12.29-16.01-23.86
			c1.03-10.34,9.39-18.47,20.24-19.42c3.63-0.32,7.3-0.16,10.96-0.16c37.83-0.01,75.65,0.01,113.48-0.04c2.48,0,5-0.26,7.42-0.79
			c10.03-2.18,17.42-10.84,17.17-19.92c-0.25-8.95-8.26-17.41-18.24-19.04c-2.61-0.43-5.31-0.53-7.96-0.53
			c-59.66-0.03-119.31-0.01-178.97-0.03c-9.65,0-19.36,0.5-28.92-0.43c-13.35-1.3-21.13-11.09-20.21-23.86
			c0.85-11.78,10.34-20.28,23.03-20.35c17.83-0.1,35.65-0.01,53.48-0.03c7.97-0.01,9.2-1.36,10.43-9.39
			c7.56-49.6,27.83-93.06,62.47-129.67c39.38-41.62,88.06-64.68,144.34-72.3c9.3-1.26,18.96-1.02,28.35-0.22
			c15.23,1.31,23.97,14.66,20.13,29.62c-0.66,2.55-1.61,5.1-2.85,7.42c-19.31,36.12-23.65,73.77-11.23,112.96
			c12.42,39.2,36.7,68.4,73.72,86.96c23.55,11.8,48.29,18.78,74.55,16.43c14.41-1.29,28.46-6.33,42.75-9.35
			c4.77-1.01,9.93-2.04,14.59-1.22c10.89,1.92,17.02,9.81,17.03,20.83c0.01,21.04-6.58,40.46-14.3,59.76
			c-13.88,34.7-36.51,63.05-63.78,87.72c-19.34,17.49-41.68,30.74-65.96,40.74c-19.34,7.97-39.4,12.03-60.1,13.6
			c-28.01,2.13-55.9,1.36-83.6-3.65c-8.84-1.6-9.84-3-9.01-12.01c1.13-12.33-6.44-21.76-18.75-23.26c-2.14-0.26-4.32-0.28-6.48-0.28
			c-60.16-0.01-120.31,0-180.47-0.04c-3.32,0-6.71-0.09-9.93-0.8c-10.57-2.31-17.7-11.91-17.17-22.67
			c0.54-11.07,8.64-19.95,19.74-20.96c5.94-0.54,11.96-0.21,17.95-0.21C169.26,477.83,206.42,477.83,243.58,477.83z"/>
	</g>
</g>
</svg>
