<?xml version="1.0" encoding="utf-8"?>
<!-- Generator: Adobe Illustrator 25.2.0, SVG Export Plug-In . SVG Version: 6.00 Build 0)  -->
<svg version="1.1" id="레이어_1" xmlns="http://www.w3.org/2000/svg" xmlns:xlink="http://www.w3.org/1999/xlink" x="0px"
	 y="0px" viewBox="0 0 700 700" style="enable-background:new 0 0 700 700;" xml:space="preserve">
<style type="text/css">
	.st0{fill:#FFFFFF;}
</style>
<g>
	<path class="st0" d="M307.09,481.42c-2.46-1.11-4.82-2.56-7.39-3.28c-23.92-6.66-42.82-21.01-59.52-38.71
		c-1.47-1.56-3.37-5.03-2.77-5.78c1.45-1.82,4.17-2.81,6.55-3.64c1.49-0.52,3.3-0.18,4.96-0.18c38.17,0,76.33,0.01,114.5-0.03
		c2.48,0,5.01-0.19,7.42-0.74c6.23-1.42,10.75-6.52,10.62-11.63c-0.13-5-5.04-10.29-10.94-11.48c-2.1-0.42-4.3-0.43-6.46-0.43
		c-40.5-0.02-81-0.01-121.5-0.03c-4.16,0-8.34-0.47-12.48-0.24c-6.8,0.39-7.99,2.85-4.33,8.54c2.43,3.78,5.24,7.32,7.6,11.14
		c2.53,4.08,1.55,6.04-3.18,6.83c-1.47,0.24-2.99,0.23-4.49,0.23c-17.83,0.01-35.67,0.02-53.5,0c-1.66,0-3.35,0-4.98-0.27
		c-8.73-1.44-14.06-7.51-13.44-15.17c0.63-7.65,6.84-13.22,15.41-13.34c12.16-0.16,24.33-0.02,36.5-0.05
		c10.95-0.02,11.18-1.09,8.28-11.6c-2.81-10.19-4.5-20.74-6-31.23c-1.14-8.01-0.8-8.64-8.74-8.69c-24.99-0.16-49.99,0.08-74.98,0.05
		c-8.65-0.01-17.37,0.25-25.9-0.84c-3.85-0.49-8.08-3.31-10.77-6.3c-4.87-5.4-3.58-14.36,2.79-17.8c4.76-2.58,10.62-4.32,16-4.37
		c31.82-0.3,63.65,0.03,95.47,0.09c6.43,0.01,8.06-1.31,9.81-7.65c17.72-64.31,81.36-106.3,144.52-99.04
		c44.77,5.14,79.09,27.09,102.88,65.78c31.09,50.57,24.29,119.35-19.08,163.08c-27.89,28.13-61.3,43.59-101.88,40.51
		c-8.46-0.64-16.96-0.78-25.45-1.12c-0.44-0.02-0.9,0.2-1.89,0.44c1.33,2.31,2.6,4.38,3.74,6.52c5.13,9.65,0.26,19.63-10.52,21.47
		c-1.95,0.33-3.98,0.35-5.97,0.35c-63.83,0.02-127.66,0.04-191.49-0.06c-3.76-0.01-7.67-0.62-11.23-1.79
		c-7.17-2.37-9.59-6.21-9.44-13.44c0.14-6.52,3.06-10.47,10.14-12.43c3.79-1.05,7.86-1.5,11.81-1.52
		c14.49-0.07,28.99,0.24,43.48,0.25c48,0.04,96,0.03,144-0.02c3.79,0,7.59-0.5,11.38-0.77
		C306.79,482.49,306.94,481.96,307.09,481.42z M257.5,349.5c0,0.11,0,0.22,0,0.33c10.99,0,21.98,0.06,32.97-0.03
		c4.32-0.03,8.67-0.09,12.94-0.66c6.38-0.86,11.43-6.48,11.38-12.08c-0.05-5.2-5.73-11.33-11.47-12.21
		c-1.96-0.3-3.98-0.33-5.97-0.34c-25.65-0.02-51.29-0.01-76.94-0.01c-1,0-2,0.02-3,0.01c-3.96-0.04-6.23,1.7-6.56,5.84
		c-0.33,4.14-1.07,8.25-1.3,12.4c-0.32,5.69,0.68,6.7,6.49,6.73C229.86,349.54,243.68,349.5,257.5,349.5z"/>
	<path class="st0" d="M476.91,468.51c2.24,1.25,6.54,2.62,9.42,5.44c18.91,18.49,37.56,37.24,56.18,56.01
		c6.83,6.88,7.06,14.95,1.01,21.32c-5.66,5.96-14.9,6.28-21.46-0.17c-19.58-19.23-38.94-38.68-58.21-58.22
		c-4.73-4.8-4.62-10.78-2.09-16.75C464.23,470.33,469.43,469.34,476.91,468.51z"/>
	<path class="st0" d="M225.07,216.36c-0.09,8.37-2.55,12.84-7.94,15.29c-6.12,2.78-11.83,1.49-16.64-2.9
		c-5.4-4.93-10.52-10.18-15.69-15.37c-13.64-13.66-27.21-27.39-40.87-41.03c-3.45-3.45-5.76-7.31-5.41-12.36
		c0.38-5.43,1.94-10.21,7.61-12.34c5.76-2.17,11.28-2.63,16.17,2.24c12.26,12.22,24.62,24.33,36.89,36.53
		c6.85,6.8,13.84,13.48,20.29,20.65C222.31,210.23,223.96,214.46,225.07,216.36z"/>
	<path class="st0" d="M569.61,364.83c-13.33,0-26.65,0.07-39.98-0.03c-8.01-0.06-14.5-5.25-15.57-12.15
		c-1.32-8.53,5.01-16.52,13.9-16.57c27.65-0.15,55.31-0.08,82.97,0.17c8.11,0.07,14.39,6.92,14.22,14.5
		c-0.17,7.7-6.9,14.17-15.06,14.22c-13.49,0.09-26.99,0.02-40.48,0.02C569.61,364.94,569.61,364.89,569.61,364.83z"/>
	<path class="st0" d="M476.19,233.18c-7.81-0.54-12.42-2.83-14.83-8.26c-2.73-6.14-1.32-11.82,3.06-16.63
		c4.48-4.92,9.26-9.57,13.97-14.27c14.14-14.11,28.32-28.17,42.46-42.28c3.7-3.69,7.89-6.27,13.31-5.42
		c4.95,0.78,9.13,2.71,11.19,7.92c2.65,6.72,1.05,12.53-3.68,17.39c-13.7,14.08-27.59,27.96-41.43,41.9
		c-4.81,4.84-9.45,9.9-14.65,14.28C482.44,230.45,478.35,231.99,476.19,233.18z"/>
	<path class="st0" d="M357,121.54c0,12.82,0.04,25.63-0.03,38.44c-0.01,1.97-0.3,3.99-0.81,5.89c-1.77,6.7-6.43,10.84-12.4,11.23
		c-6.44,0.42-12.21-3.38-14.56-9.92c-0.77-2.15-1.15-4.55-1.15-6.83c-0.08-25.63-0.11-51.27-0.02-76.9
		c0.03-9.29,5.21-15.33,13.15-15.93c8.98-0.68,15.6,5,15.75,14.08C357.16,94.91,357,108.23,357,121.54z"/>
	<path class="st0" d="M357,577.93c0,12.98,0.13,25.96-0.04,38.94c-0.14,11.1-7.92,18.21-17.3,16.18c-6.86-1.49-11.57-8-11.63-16.59
		c-0.1-14.81-0.03-29.62-0.03-44.44c0-10.98-0.15-21.97,0.05-32.95c0.17-9.35,5.83-15.18,14.27-15.23
		c8.63-0.06,14.49,5.38,14.62,14.16C357.15,551.3,357,564.62,357,577.93z"/>
</g>
</svg>
