<?xml version="1.0" encoding="utf-8"?>
<!-- Generator: Adobe Illustrator 25.2.0, SVG Export Plug-In . SVG Version: 6.00 Build 0)  -->
<svg version="1.1" id="레이어_1" xmlns="http://www.w3.org/2000/svg" xmlns:xlink="http://www.w3.org/1999/xlink" x="0px"
	 y="0px" viewBox="0 0 700 700" style="enable-background:new 0 0 700 700;" xml:space="preserve">
<style type="text/css">
	.st0{display:none;}
	.st1{fill:#FFFFFF;}
</style>
<g id="hell">
	<rect x="-34.23" y="-7" class="st0" width="743" height="732"/>
	<g>
		<g>
			<g>
				<path class="st1" d="M546.34,407.67l-26.79,53.58l-39.47-19.73c1.78-1.55,3.45-3.18,5.32-4.64
					c34.91-27.14,54.92-68.07,54.92-112.27v-3.36h44.95v-67.43h-44.95v-4.39v-3.37v-37.19h44.95v-67.43h-53.41
					c-24.06-78-96.8-134.85-182.59-134.85S190.73,63.44,166.68,141.44h-53.41v67.43h44.95v37.2v3.37v4.38h-44.95v67.43h44.95v3.36
					c0,44.21,20.02,85.13,54.91,112.27c1.88,1.46,3.55,3.09,5.32,4.64l-39.47,19.73l-26.79-53.58L8.1,473.19l111.2,222.4
					l144.09-65.51l-33.74-67.47l33.03-15.18c10.5,38,45.29,66.01,86.58,66.01s76.08-28.02,86.58-66.02l33.03,15.18l-33.74,67.47
					l144.09,65.51l111.2-222.4L546.34,407.67z M562.79,276.3v22.48h-22.48V276.3H562.79z M562.79,163.92v22.48h-23.05
					c-0.45-7.62-1.28-15.13-2.6-22.48H562.79z M158.22,298.78h-22.48V276.3h22.48V298.78z M158.78,186.4h-23.04v-22.48h25.63
					C160.06,171.27,159.23,178.78,158.78,186.4z M517.85,249.44c-0.01,22.88-6.25,45.36-18.03,65
					c-6.68,11.14-18.89,18.05-31.87,18.05c-8.68,0-17.14-3.06-23.81-8.63l-22.09-18.42c-17.69-14.72-27.83-36.38-27.83-59.37
					c0-20.51,16.68-37.2,37.2-37.2h49.23c20.51,0,37.2,16.68,37.2,37.2L517.85,249.44L517.85,249.44z M180.7,246.07
					c0-20.51,16.68-37.2,37.2-37.2h49.23c20.51,0,37.2,16.68,37.2,37.2c0,23-10.14,44.66-27.81,59.38l-22.12,18.42
					c-6.66,5.56-15.13,8.62-23.81,8.62c-12.98,0-25.2-6.91-31.88-18.05c-11.77-19.64-18-42.12-18-65.01v-3.36H180.7z M129.71,666.15
					L38.62,483.98l25.31-11.5l91.08,182.17L129.71,666.15z M232.86,619.29l-57.36,26.06L84.42,463.18l57.36-26.06L232.86,619.29z
					 M219.59,542.5l-30.56-61.14l45.54-22.77c14.51,18.84,22.99,41.58,24.39,65.81L219.59,542.5z M349.27,590.97
					c-37.19,0-67.43-30.24-67.43-67.43s30.24-67.43,67.43-67.43s67.43,30.24,67.43,67.43C416.7,560.72,386.45,590.97,349.27,590.97z
					 M426.99,478.56c-15.58-26.81-44.54-44.93-77.72-44.93s-62.15,18.12-77.73,44.93c-9.22-23.07-24.3-43.63-44.6-59.42
					c-28.45-22.14-45.01-55.17-46.03-91.04c10.96,16.59,29.71,26.86,49.69,26.86c13.92,0,27.5-4.92,38.19-13.82l22.12-18.42
					c22.81-19.03,35.89-46.96,35.89-76.65c0-32.91-26.77-59.67-59.67-59.67h-49.22c-14.14,0-26.96,5.15-37.2,13.38v-2.15
					c0-92.95,75.62-168.57,168.57-168.57s168.57,75.62,168.57,168.57v2.15c-10.24-8.24-23.06-13.38-37.2-13.38h-49.22
					c-32.91,0-59.67,26.77-59.67,59.67c0,29.7,13.08,57.64,35.91,76.65l22.09,18.42c10.7,8.91,24.27,13.82,38.2,13.82
					c19.98,0,38.74-10.27,49.69-26.86c-1.03,35.87-17.58,68.9-46.04,91.04C451.29,434.95,436.2,455.5,426.99,478.56z M439.57,524.4
					c1.39-24.23,9.88-46.98,24.39-65.81l45.54,22.77l-30.57,61.14L439.57,524.4z M465.68,619.28l91.08-182.16l57.36,26.06
					l-91.08,182.17L465.68,619.28z M568.81,666.15l-25.31-11.5l91.08-182.17l25.31,11.5L568.81,666.15z"/>
				<path class="st1" d="M349.27,478.59c-24.79,0-44.95,20.16-44.95,44.95s20.16,44.95,44.95,44.95s44.95-20.16,44.95-44.95
					C394.22,498.75,374.06,478.59,349.27,478.59z M349.27,546.01c-12.4,0-22.48-10.08-22.48-22.48c0-12.4,10.08-22.48,22.48-22.48
					c12.4,0,22.48,10.08,22.48,22.48C371.74,535.93,361.66,546.01,349.27,546.01z"/>
				<rect x="338.03" y="388.68" class="st1" width="22.48" height="22.48"/>
				<rect x="338.03" y="343.73" class="st1" width="22.48" height="22.48"/>
				<rect x="338.03" y="298.78" class="st1" width="22.48" height="22.48"/>
			</g>
		</g>
	</g>
</g>
</svg>
