<?xml version="1.0" encoding="utf-8"?>
<!-- Generator: Adobe Illustrator 25.2.0, SVG Export Plug-In . SVG Version: 6.00 Build 0)  -->
<svg version="1.1" id="레이어_1" xmlns="http://www.w3.org/2000/svg" xmlns:xlink="http://www.w3.org/1999/xlink" x="0px"
	 y="0px" viewBox="0 0 700 700" style="enable-background:new 0 0 700 700;" xml:space="preserve">
<style type="text/css">
	.st0{fill:none;stroke:#FFFFFF;stroke-width:30;stroke-linecap:round;stroke-linejoin:round;stroke-miterlimit:10;}
	.st1{fill:#FFFFFF;}
	.st2{fill:none;stroke:#FFFFFF;stroke-width:30;stroke-linecap:round;stroke-miterlimit:10;}
</style>
<rect x="-13" y="792.19" width="743" height="732"/>
<path class="st0" d="M468.7,1342.92c-55.75-157-239-211-321-125"/>
<circle class="st0" cx="350.75" cy="1149.44" r="289.75"/>
<rect x="-827" y="-7" width="743" height="732"/>
<circle class="st1" cx="-530" cy="204.75" r="31.75"/>
<circle class="st1" cx="-296" cy="268.25" r="31.75"/>
<path class="st0" d="M-634,339c194.65,82.88,212.43,91.97,321,132"/>
<circle class="st0" cx="-463.25" cy="350.25" r="289.75"/>
<rect x="801" y="-7" width="743" height="732"/>
<circle class="st1" cx="1098" cy="204.75" r="31.75"/>
<circle class="st1" cx="1332" cy="268.25" r="31.75"/>
<path class="st0" d="M994,339c55.75,157,239,211,321,125"/>
<circle class="st0" cx="1164.75" cy="350.25" r="289.75"/>
<line class="st2" x1="242" y1="962.19" x2="339" y2="1050.19"/>
<line class="st2" x1="453" y1="1091.19" x2="579" y2="1047.19"/>
<line class="st0" x1="151.48" y1="339" x2="565.52" y2="339"/>
</svg>
