<?xml version="1.0" encoding="utf-8"?>
<!-- Generator: Adobe Illustrator 25.2.0, SVG Export Plug-In . SVG Version: 6.00 Build 0)  -->
<svg version="1.1" id="레이어_1" xmlns="http://www.w3.org/2000/svg" xmlns:xlink="http://www.w3.org/1999/xlink" x="0px"
	 y="0px" viewBox="0 0 700 700" style="enable-background:new 0 0 700 700;" xml:space="preserve">
<style type="text/css">
	.st0{fill:#FFFFFF;}
</style>
<g>
	<g>
		<path class="st0" d="M355.51,638.34c-54.19,3.92-103.03-57.36-83.03-116.77c17.9-53.16,44.13-101.83,77.59-146.72
			c5.47-7.34,12.75-7.08,18.58,0.74c16.94,22.72,32.3,46.43,45.19,71.72c11.03,21.64,22.16,43.22,29.49,66.48
			c4.84,15.35,8.43,30.96,6.14,47.14c-3.65,25.83-16.62,46.1-37.12,62.19c-11.66,9.15-25.12,11.68-38.95,13.75
			C367.5,637.77,361.48,637.88,355.51,638.34z"/>
		<path class="st0" d="M105.77,305.4c1.62-7.77,2.52-15.76,4.97-23.26c12.84-39.42,32.66-75.25,57.24-108.51
			c5.09-6.89,10.11-6.77,15.6,0.54c14.81,19.75,27.53,40.8,38.4,62.98c8.86,18.09,17.73,36.16,21.2,56.26
			c4.55,26.39-4.8,47.44-24.45,64.88c-11.54,10.24-25.55,12.31-39.85,13.42c-35.46,2.74-64.79-20.07-71.3-55.15
			c-0.66-3.58-0.68-7.27-0.99-10.91C106.31,305.56,106.04,305.48,105.77,305.4z"/>
		<path class="st0" d="M534.54,297.26c-30.48,2.29-52.52-30.37-53.31-52.56c-0.33-9.33,0.41-19.16,3.04-28.06
			c10.3-34.9,26.78-66.94,47.41-96.87c4.02-5.83,8.4-5.87,12.61,0.14c12.45,17.77,23.02,36.6,32.03,56.35
			c7.67,16.83,15.1,33.69,18.13,52.14c3.95,24.08-7.91,50.8-29.07,62.89C556.44,296.4,546.02,297.04,534.54,297.26z"/>
	</g>
</g>
</svg>
