<?xml version="1.0" encoding="utf-8"?>
<!-- Generator: Adobe Illustrator 25.2.0, SVG Export Plug-In . SVG Version: 6.00 Build 0)  -->
<svg version="1.1" id="레이어_1" xmlns="http://www.w3.org/2000/svg" xmlns:xlink="http://www.w3.org/1999/xlink" x="0px"
	 y="0px" viewBox="0 0 700 700" style="enable-background:new 0 0 700 700;" xml:space="preserve">
<style type="text/css">
	.st0{fill:#FFFFFF;}
</style>
<g>
	<g>
		<path class="st0" d="M349.46,491.18c-41.5,0-83-0.01-124.49,0c-20.16,0-40.4,1.19-60.46-0.19c-37.16-2.56-65.97-20.71-87.9-50.56
			c-17.1-23.27-21.4-49.57-20.19-77.59c1.74-40.31,20.53-70.86,53.65-92.48c18.59-12.13,39.28-19.52,62.13-18.93
			c10.11,0.26,11.04-1.01,12.69-11.09c9.56-58.12,41.56-100.04,93.39-126.79c19.06-9.83,40.37-12.83,61.62-12.85
			c18.42-0.01,36.99,0.94,55.2,3.57c16.11,2.32,30.41,10.84,43.85,19.81c41.65,27.79,66.69,66.59,75.1,115.99
			c1.77,10.42,2.54,11.48,13.06,11.37c52.39-0.55,106.85,43.03,115.57,101.15c7.5,49.97-19,100.26-55.66,121.2
			c-19.12,10.92-39.34,18.06-62.04,17.88c-58.5-0.47-117.01-0.16-175.52-0.16C349.46,491.41,349.46,491.3,349.46,491.18z
			 M349.38,447.51c56.49,0,112.98,0.09,169.47-0.11c7.59-0.03,15.36-0.81,22.74-2.54c34.3-8.06,58.11-37.99,58.61-72.98
			c0.48-33.65-22.87-64.04-56.28-73.22c-14.67-4.03-29.63-3.57-44.64-3.3c-4.57,0.08-9.63-1.3-13.66-3.49
			c-7.74-4.2-11.23-11.25-11.15-20.29c0.35-38.23-12.08-71.61-40.78-97.28c-67.29-60.18-164.82-31.3-197.23,39.39
			c-8.63,18.83-12.23,38.57-12.01,59.18c0.14,12.79-10.19,22.29-22.88,22.41c-13.13,0.12-26.53-0.44-39.31,1.99
			c-29.51,5.6-50.28,22.36-59.58,51.85c-9.27,29.39-1.24,54.71,19.12,76.27c15.08,15.98,35.02,22.01,56.62,22.08
			C235.4,447.63,292.39,447.51,349.38,447.51z"/>
		<path class="st0" d="M371.52,553.89c0,5.16-0.03,10.32,0.01,15.48c0.08,12.58-9.82,19.32-21.57,20.43
			c-9.42,0.89-19.91-7.51-21.87-17.65c-0.85-4.36-0.78-8.93-0.88-13.41c-0.14-6.15-0.07-12.3-0.03-18.45
			c0.09-13.93,9.86-23.56,23.71-23.41c11.42,0.12,20.93,10.8,20.95,23.53c0.01,4.5,0,9,0,13.49
			C371.73,553.88,371.62,553.88,371.52,553.89z"/>
		<path class="st0" d="M411.83,593.25c0-5.15-0.13-10.31,0.03-15.46c0.26-8.27,4.94-13.55,12.18-16.7
			c7.45-3.25,14.91-3.61,21.7,1.63c6.25,4.82,9.79,11.14,9.79,19.26c0.01,8.47,0.21,16.94,0.3,25.41
			c0.16,15.85-12.51,26.49-27.98,23.52c-9.1-1.75-16.74-12.01-16.84-22.71c-0.05-4.98-0.01-9.96-0.01-14.94
			C411.29,593.25,411.56,593.25,411.83,593.25z"/>
		<path class="st0" d="M539.04,553.89c0,5.32-0.16,10.65,0.03,15.97c0.57,16.06-21,24.7-32.5,17.06
			c-6.77-4.49-11.23-10.72-11.37-18.95c-0.19-10.97-0.03-21.98,0.75-32.92c0.78-11.09,11.2-18.77,23.49-18.17
			c9.51,0.46,19.45,10.46,19.71,20.02c0.16,5.66,0.03,11.32,0.03,16.98C539.14,553.89,539.09,553.89,539.04,553.89z"/>
		<path class="st0" d="M203.82,554.12c0,4.82,0.14,9.65-0.03,14.47c-0.44,12.5-9.53,21.09-22.36,21.26
			c-10.35,0.14-20.91-9.56-21.42-20.54c-0.5-10.79-0.52-21.64-0.02-32.43c0.51-11.07,10.93-19.92,22.36-19.85
			c11,0.06,21.11,9.53,21.7,20.63c0.29,5.47,0.05,10.98,0.05,16.46C204.01,554.12,203.92,554.12,203.82,554.12z"/>
		<path class="st0" d="M288.15,595.48c0,3.99-0.05,7.98,0.01,11.97c0.25,16.14-12.72,26.81-28.42,23.36
			c-9.17-2.02-16.49-12.69-16.26-23.67c0.18-8.81,0.35-17.62,0.5-26.42c0.21-12.98,8.99-21.65,22.15-21.85
			c11.17-0.17,21.41,9.91,21.82,21.65c0.18,4.98,0.03,9.98,0.03,14.97C288.04,595.48,288.1,595.48,288.15,595.48z"/>
	</g>
</g>
</svg>
