<?xml version="1.0" encoding="utf-8"?>
<!-- Generator: Adobe Illustrator 25.2.0, SVG Export Plug-In . SVG Version: 6.00 Build 0)  -->
<svg version="1.1" id="레이어_1" xmlns="http://www.w3.org/2000/svg" xmlns:xlink="http://www.w3.org/1999/xlink" x="0px"
	 y="0px" viewBox="0 0 700 700" style="enable-background:new 0 0 700 700;" xml:space="preserve">
<style type="text/css">
	.st0{fill:#FFFFFF;}
</style>
<g>
	<g>
		<path class="st0" d="M346.85,470.17c-81.16,0-162.32,0-243.47,0c-12.41,0-16.09-2.49-16.47-14.71
			c-0.43-13.91,0.65-27.89,1.45-41.82c0.17-3.03,1.5-6.19,2.98-8.92c18.9-34.8,37.98-69.51,56.88-104.31
			c3.22-5.93,7.68-8.55,14.48-8.5c25.33,0.2,50.66,0.24,75.99-0.07c4.64-0.06,9.69-1.18,13.81-3.27c15.47-7.86,30.82-9.17,47.14-2.5
			c13.22,5.41,26.91,9.65,40.37,14.47c4.16,1.49,7.7,0.83,11.11-2.06c6.23-5.27,12.56-10.43,19-15.45
			c15.68-12.24,32.8-15.39,51.59-8.04c6.35,2.48,12.8,4.72,19.25,6.93c6.95,2.39,8.7,1.76,11.62-4.98
			c3.77-8.7,7.06-17.6,10.77-26.32c6.51-15.31,13.07-30.59,19.84-45.78c1.83-4.11,1.39-7.21-1.77-10.33
			c-5.93-5.85-11.77-11.79-17.52-17.82c-5.19-5.46-5.85-11.53-2.21-18.27c3.08-5.71,6.48-11.27,9.24-17.13
			c1.95-4.13,4.78-5.15,8.83-4.19c4.53,1.08,9.24,1.71,13.55,3.35c21.13,8.04,42.27,16.08,63.18,24.68
			c9.34,3.84,10.9,9.39,6.64,18.48c-2.75,5.88-5.54,11.74-8.47,17.52c-2.89,5.7-7.44,8.77-14.08,8.38
			c-8.31-0.49-16.63-0.77-24.93-1.29c-6.7-0.42-9.94,1.37-12.33,6.96c-9.89,23.08-19.8,46.16-29.73,69.23
			c-2.73,6.35-1.97,7.57,5.03,7.57c17,0.02,34,0.14,50.99-0.06c6.92-0.08,11.8,2.66,15.11,8.62
			c19.87,35.79,39.78,71.56,59.58,107.38c0.98,1.78,1.44,4.07,1.45,6.12c0.12,14.99,0.07,29.99,0.06,44.98
			c-0.01,8-2.42,10.55-10.51,11.08c-1.66,0.11-3.33,0.04-5,0.04C509.16,470.17,428,470.17,346.85,470.17z M346.07,406.5
			c72.8,0,145.6,0,218.41-0.01c2.33,0,4.66-0.1,6.98-0.34c3.38-0.35,4.33-2.27,2.77-5.2c-1.09-2.04-3.06-3.74-3.71-5.87
			c-2.19-7.24-7.43-8.48-14.03-8.27c-9.32,0.3-18.65,0.09-27.98,0.21c-4.8,0.06-8.1-1.98-10.64-6.08
			c-3.95-6.35-8.08-12.61-12.5-18.65c-25.27-34.56-57.85-58.4-100.12-67.98c-5.35-1.21-10.14-0.7-14.62,2.72
			c-8.74,6.66-17.75,12.97-26.35,19.81c-10.22,8.12-20.85,9.63-33.11,4.77c-14.68-5.81-29.74-10.64-44.62-15.95
			c-6.62-2.36-13.09-2.3-19.3,1.14c-6.68,3.7-13.69,7-19.82,11.48c-24.63,17.96-45.9,39.5-65.14,63.05
			c-3.16,3.87-6.42,5.75-11.37,5.69c-12.83-0.16-25.66-0.25-38.48,0.15c-2.73,0.09-5.9,1.83-7.96,3.77
			c-2.07,1.95-3.09,5.06-4.43,7.73c-2.87,5.75-1.84,7.44,4.62,7.49c19.32,0.14,38.64,0.31,57.96,0.33
			C237.12,406.53,291.59,406.5,346.07,406.5z M520.48,185.57c0,0.15,0,0.29,0.01,0.44c3.49,0,7.02,0.33,10.44-0.13
			c1.96-0.27,3.74-1.83,5.6-2.81c-1.38-1.34-2.53-3.24-4.19-3.93c-5.81-2.43-11.81-4.41-17.71-6.64
			c-7.76-2.94-15.46-6.07-23.29-8.81c-1.4-0.49-3.33,0.53-5.02,0.85c0.38,1.5,0.32,3.38,1.23,4.42
			c7.81,8.99,15.66,18.05,29.45,16.36C518.14,185.18,519.32,185.47,520.48,185.57z"/>
		<path class="st0" d="M346.43,489.17c76.82,0,153.65,0,230.47,0c8.42,0,9.09,0.68,9.1,9.05c0.04,27.66,0.11,55.32,0.11,82.98
			c0,2.14-0.22,4.34-0.72,6.42c-1.03,4.33-3.52,7.09-8.39,6.87c-1.66-0.07-3.33,0.02-5,0.02c-149.48,0-298.96,0-448.44-0.01
			c-2.49,0-4.99-0.15-7.48-0.3c-6.81-0.43-8.26-1.58-8.8-8.52c-0.48-6.13-0.41-12.32-0.42-18.48c-0.04-23.33-0.03-46.66-0.01-69.99
			c0.01-7.08,0.98-8.02,8.11-8.02C192.11,489.16,269.27,489.17,346.43,489.17z"/>
		<path class="st0" d="M422.75,335.08c-0.23,5.55-6.21,10.97-11.85,10.73c-6.03-0.25-11.16-5.65-10.9-11.46
			c0.26-5.72,6.04-11.09,11.64-10.82C417.32,323.81,422.98,329.69,422.75,335.08z"/>
		<path class="st0" d="M381,355.61c-0.05,5.87-5.33,10.89-11.41,10.87c-5.91-0.03-11.22-5.44-11.04-11.26
			c0.18-5.8,5.73-11.15,11.44-11.03C375.68,344.3,381.05,349.88,381,355.61z"/>
		<path class="st0" d="M442.25,366.47c-6.01-0.05-11.23-5.34-11.07-11.22c0.15-5.77,5.75-11.18,11.44-11.07
			c5.53,0.11,11.27,5.99,11.19,11.45C453.73,361.41,448.28,366.52,442.25,366.47z"/>
		<path class="st0" d="M276.29,356c-6.09-0.05-11.37-5.19-11.27-10.97c0.1-5.74,5.58-11.05,11.37-11.02
			c6.07,0.03,11.1,5.07,11.1,11.11C287.48,351.25,282.54,356.04,276.29,356z"/>
	</g>
</g>
</svg>
