<?xml version="1.0" encoding="utf-8"?>
<!-- Generator: Adobe Illustrator 25.2.0, SVG Export Plug-In . SVG Version: 6.00 Build 0)  -->
<svg version="1.1" id="레이어_1" xmlns="http://www.w3.org/2000/svg" xmlns:xlink="http://www.w3.org/1999/xlink" x="0px"
	 y="0px" viewBox="0 0 700 700" style="enable-background:new 0 0 700 700;" xml:space="preserve">
<style type="text/css">
	.st0{fill:#FFFFFF;}
</style>
<g>
	<g>
		<path class="st0" d="M350.81,580.94c1.64-4.46,2.86-9.14,5.01-13.35c6.65-13.04,13.96-25.75,20.45-38.87
			c9.29-18.81,15.09-38.72,16.78-59.69c0.8-9.9-0.65-19.57-3.96-28.98c-2.04-5.8-4.05-11.65-5.47-17.62
			c-5.09-21.34-17.3-39.13-28.28-57.53c-14.08-23.59-28.02-47.21-36.69-73.52c-11.72-35.56-12.59-71.03-1.1-106.9
			c7.92-24.72,17.74-48.41,32.7-69.73c2.77-3.94,5.87-7.68,9.15-11.21c5.98-6.44,16.41-8.03,24.31-4.03
			c7.99,4.05,13.61,14.62,11.63,22.98c-0.98,4.13-2.71,8.21-4.75,11.95c-12.44,22.77-25.23,45.3-31.93,70.73
			c-5.53,20.99-5.51,41.14,1.04,62.28c7.48,24.14,18.04,46.33,31.47,67.54c14.8,23.38,28.01,47.75,36.92,73.99
			c10.75,31.68,13.35,64.17,4.68,96.88c-8.78,33.13-22.76,63.85-43.69,91.25c-2.99,3.92-6.43,5.91-10.96,5.28
			c-5.38-0.75-10.89-1.68-15.93-3.62C354.6,595.83,351.22,589.48,350.81,580.94z"/>
		<path class="st0" d="M517.87,581.83c1.58-4.65,2.63-9.56,4.83-13.9c6.1-12.01,13.02-23.61,18.97-35.69
			c10.91-22.14,18.59-45.24,18.41-70.3c-0.03-4.62-0.38-9.43-1.67-13.83c-7.38-25.21-15-50.14-29.36-72.8
			c-13.41-21.16-25.57-43.3-36.25-65.97c-15.4-32.68-21.03-67.57-13.6-103.23c7.67-36.8,21.12-71.46,45.64-100.83
			c6.87-8.23,17.82-10.31,26.42-5.44c9.41,5.33,13.78,16.4,10.21,26.63c-1.14,3.27-2.91,6.34-4.61,9.38
			c-13.86,24.88-27.43,49.84-33.29,78.17c-3.56,17.18-3.81,33.99,2.67,50.58c1.51,3.86,2.73,7.86,3.74,11.89
			c4.11,16.31,11.4,31.12,20.3,45.34c16.07,25.69,31.35,51.84,42.23,80.28c13.8,36.08,16.5,72.78,5.57,110.11
			c-9.06,30.94-22.57,59.68-42.33,85.35c-2.48,3.22-5.34,5.45-9.16,4.75c-6.77-1.24-13.75-2.43-19.99-5.13
			C520.68,594.63,518.49,588.7,517.87,581.83z"/>
		<path class="st0" d="M270.05,467.84c0.18,25.65-7.14,49.59-16.41,73.1c-8.36,21.2-19.64,40.75-33.77,58.6
			c-1.44,1.82-4.23,3.21-6.57,3.56c-7.29,1.08-14.29-0.58-20.68-4.15c-9.42-5.26-11.69-17.11-5.6-28.64
			c7.07-13.39,14.57-26.56,21.27-40.12c9.36-18.95,15.44-38.98,16.86-60.16c0.41-6.07,0.44-12.55-1.19-18.32
			c-6.48-22.82-11.69-46.1-24.79-66.56c-9.06-14.15-17.36-28.79-25.72-43.37c-12.22-21.3-22.3-43.53-27.67-67.65
			c-6.42-28.85-5.61-57.4,3.13-85.79c8.63-28.03,19.73-54.75,37.73-78.21c5.86-7.64,12.32-13.25,23.09-11.38
			c11.34,1.96,20.42,14.03,17.79,25.29c-0.97,4.13-2.93,8.12-4.97,11.89c-10.75,19.9-22.31,39.39-28.95,61.23
			c-4.32,14.21-8.08,28.53-7.4,43.57c0.18,3.97,0.46,8.05,1.5,11.86c7.37,27,15.91,53.36,31.72,77.1
			c16.43,24.68,30.25,50.95,40.44,78.91C266.81,427.67,269.64,447.58,270.05,467.84z"/>
	</g>
</g>
</svg>
