<?xml version="1.0" encoding="utf-8"?>
<!-- Generator: Adobe Illustrator 25.2.0, SVG Export Plug-In . SVG Version: 6.00 Build 0)  -->
<svg version="1.1" id="레이어_1" xmlns="http://www.w3.org/2000/svg" xmlns:xlink="http://www.w3.org/1999/xlink" x="0px"
	 y="0px" viewBox="0 0 700 700" style="enable-background:new 0 0 700 700;" xml:space="preserve">
<style type="text/css">
	.st0{fill:#FFFFFF;}
</style>
<g>
	<path class="st0" d="M328,252.47c0-13.83-0.09-27.67,0.05-41.5c0.05-5.34-1.71-9.62-5.52-13.37
		c-13.04-12.88-25.94-25.92-38.93-38.85c-6.06-6.03-10.55-12.87-11.56-21.57c-1.35-11.57,5.9-23.4,18.07-29.57
		c9.11-4.62,23.13-1.77,31.8,6.71c9.41,9.21,18.63,18.6,27.95,27.9c6.38,6.36,7.95,6.35,14.23,0.07
		c9.2-9.19,18.35-18.42,27.58-27.57c15.49-15.35,38.9-11.5,48.21,8.21c4.65,9.84,2.89,19.52-3.07,28.42
		c-1.65,2.47-3.76,4.67-5.86,6.8c-12.65,12.81-25.28,25.63-38.07,38.28c-4.68,4.63-6.81,9.89-6.78,16.5
		c0.11,26.66-0.13,53.33,0.01,79.99c0.02,3.08,1.59,6.14,2.44,9.22c2.9-0.96,6.13-1.38,8.64-2.95
		c23.99-15.02,47.94-30.11,71.65-45.56c2.84-1.85,5.23-5.74,6.07-9.12c4.98-20.19,9.46-40.5,14.08-60.78
		c2.94-12.92,13.14-22.17,25.98-23.51c12.47-1.3,23.98,5.22,29.5,16.36c3.59,7.26,2.53,14.74,1.1,22.03
		c-2.6,13.22-5.73,26.33-8.86,39.44c-1.59,6.65-0.79,9.05,5.79,10.77c14.17,3.69,28.53,6.62,42.64,10.5
		c12.31,3.38,21.72,10.92,26.07,23.19c3.61,10.17,0.56,19.22-8.02,25.74c-10.21,7.76-21.25,11.69-34.52,8.15
		c-18-4.81-36.26-8.64-54.38-12.99c-6.68-1.6-12.81-0.72-18.65,2.95c-22.26,14.02-44.56,27.95-66.81,41.98
		c-3.23,2.04-6.37,4.26-9.32,6.67c-2.91,2.37-2.96,5.1,0.15,7.46c2.38,1.81,4.84,3.54,7.37,5.14c23.22,14.68,46.48,29.3,69.69,44
		c6.51,4.12,13.49,3.35,20.33,1.81c18.01-4.06,35.91-8.64,53.93-12.67c12.18-2.72,22.99-0.08,30.68,10.43
		c7.93,10.84,10.22,22.62,4.34,35.25c-2.53,5.44-7.35,8.23-12.78,9.56c-9.36,2.3-18.89,3.89-28.28,6.08
		c-7.61,1.77-15.19,3.72-22.62,6.11c-5.83,1.87-6.66,3.84-5.44,9.78c3.06,14.82,6.53,29.57,9.2,44.46
		c2.59,14.46-5.8,28.09-19.31,32.71c-12.21,4.17-28.42-2.53-34.77-15.03c-2.44-4.8-3.54-10.33-4.9-15.61
		c-3.4-13.21-6.59-26.47-9.87-39.71c-0.4-1.61-1.25-3.25-1.15-4.83c0.66-10.54-5.55-16.31-13.69-21.34
		c-21.82-13.46-43.41-27.3-65.2-40.8c-2.52-1.56-5.76-1.95-8.66-2.88c-0.83,2.91-2.37,5.82-2.39,8.73
		c-0.13,27.83-0.01,55.66,0.06,83.49c0.01,4.96,2.16,8.89,5.64,12.35c12.86,12.83,25.64,25.74,38.42,38.64
		c1.76,1.77,3.54,3.56,5.02,5.56c14.62,19.73,5.63,38.77-13.6,46.6c-11.32,4.61-21.93-0.32-30.49-8.56
		c-9.36-9.02-18.42-18.35-27.62-27.53c-5.56-5.55-7.48-5.56-13.17,0.1c-9.46,9.39-18.68,19.03-28.33,28.22
		c-17.21,16.4-43.22,9.76-49.32-12.55c-2.68-9.79-1-18.97,6.24-26.43c14.04-14.47,28.16-28.86,42.53-43.01
		c4.63-4.56,6.65-9.45,6.6-15.93c-0.22-26.66-0.09-53.33-0.09-80c0-0.83,0.01-1.67,0-2.5c-0.16-7.79-2.9-9.41-9.5-5.25
		c-19.86,12.53-39.64,25.18-59.43,37.8c-4.21,2.69-8.25,5.66-12.58,8.14c-4.41,2.54-6.57,6.28-7.65,11.09
		c-4.55,20.29-9.27,40.54-13.84,60.82c-3.08,13.68-15.74,24.06-29.92,24.33c-11.91,0.23-24.31-9.27-27.25-21.72
		c-1.08-4.56-1.18-9.71-0.27-14.3c2.92-14.85,6.46-29.58,9.86-44.34c1.36-5.91,0.55-8.61-5.35-10.39
		c-9.38-2.83-18.99-4.88-28.52-7.2c-5.82-1.42-11.75-2.45-17.48-4.16c-11.7-3.5-19.98-10.65-22.09-23.22
		c-2.19-13.03,2.81-22.98,13.66-30.38c6.37-4.34,13.17-4.26,20.14-2.81c20.36,4.23,40.71,8.48,61,13.01
		c8.2,1.83,15.08,0.12,22.16-4.42c20.45-13.14,41.28-25.67,61.92-38.49c4.1-2.54,8.15-5.19,12.06-8c3.52-2.54,3.47-5.55,0.06-8.12
		c-3.45-2.6-7.08-4.99-10.76-7.25c-17.87-10.99-35.79-21.89-53.69-32.84c-2.84-1.74-5.96-3.18-8.39-5.38
		c-7.62-6.91-16.28-7.45-25.7-5.21c-18.13,4.31-36.27,8.57-54.45,12.65c-7.26,1.63-14.52,1.7-21.48-1.77
		c-11.34-5.66-17.79-17.01-16.56-29.41c1.2-12.14,9.54-22.11,21.74-25.16c13.07-3.27,26.27-6.04,39.41-9.04
		c0.97-0.22,1.94-0.46,2.9-0.74c10.06-2.94,11.2-4.98,8.87-14.98c-3.25-13.93-6.52-27.86-9.48-41.86
		c-3.56-16.83,7.37-32.37,24.37-35.07c12.39-1.96,26.55,6.23,31.18,19.25c3.16,8.88,4.8,18.31,6.98,27.53
		c3.13,13.27,5.87,26.65,9.37,39.83c0.85,3.21,3.4,6.73,6.19,8.55c24.26,15.84,48.72,31.36,73.18,46.88
		c6.53,4.15,9.28,2.5,9.32-5.46C328.05,280.81,328,266.64,328,252.47z"/>
</g>
</svg>
