<?xml version="1.0" encoding="utf-8"?>
<!-- Generator: Adobe Illustrator 25.2.0, SVG Export Plug-In . SVG Version: 6.00 Build 0)  -->
<svg version="1.1" id="레이어_1" xmlns="http://www.w3.org/2000/svg" xmlns:xlink="http://www.w3.org/1999/xlink" x="0px"
	 y="0px" viewBox="0 0 700 700" style="enable-background:new 0 0 700 700;" xml:space="preserve">
<style type="text/css">
	.st0{fill:#FFFFFF;}
</style>
<g>
	<g>
		<path class="st0" d="M221.12,351.83c-10.49,0-20.98,0.23-31.46-0.05c-22.32-0.6-43.83,22.26-38.94,45.37
			c1.57,7.43-0.03,10.14-6.81,13.63c-9.43,4.87-14.96,12.94-18.83,22.44c-0.56,1.39-0.96,2.84-1.55,4.22
			c-2.24,5.21-4.68,6.02-9.16,2.72c-23.54-17.35-40.75-39.42-44.73-68.9c-8.5-62.98,21.68-109.02,80.96-126.72
			c5.66-1.69,11.82-1.8,17.78-2.37c4.44-0.43,6.48-2.38,6.48-7.01c0-45.76,18.93-82.64,54.44-110.55
			c26.6-20.9,57.24-30.9,91.65-29.35c36.29,1.63,67.93,13.49,94.33,38.69c15.36,14.66,25.23,32.9,33.84,51.96
			c0.82,1.82,1.44,3.73,2.27,5.54c1.5,3.25,3.99,4.27,7.38,3.04c59.14-21.46,127.76,10.45,155.47,60.15
			c11.5,20.63,19.86,42.64,18.76,66.96c-1.6,35.23-10.54,67.8-36.12,93.74c-15,15.21-32.33,27.23-52.17,35.34
			c-9.23,3.77-11.27,2.95-17.51-4.66c-22.62-27.56-52.23-40.24-87.43-40.84c-8.82-0.15-17.66,0.34-26.46-0.06
			c-7.3-0.33-8.79-3.75-4.33-9.7c11.85-15.82,18.84-33.25,18.14-53.28c-1.44-41.16-28.1-72.93-68.85-82.18
			c-41.81-9.49-86.23,16.95-98,58.3c-2.1,7.38-1.53,14.41,1.85,21.34c4.23,8.66,2.09,12.09-7.5,12.17
			C243.45,351.91,232.29,351.83,221.12,351.83z"/>
		<path class="st0" d="M307.13,430.01c46.5,0,93-0.07,139.5,0.02c32.19,0.07,63.28,22.65,74.75,54.02
			c11.22,30.71,2.24,65.52-22.43,86.89c-26.13,22.64-68.47,27.49-96.47,11.08c-15.93-9.33-26.25-23.32-33-40.14
			c-2.17-5.4-2.89-11.05,1.21-16.11c6.21-7.69,16.59-7.41,23.07,0.96c2.71,3.51,4.54,7.72,6.67,11.66
			c12.59,23.34,39.93,31.7,63.89,20.24c17.78-8.5,28.84-21.83,31.72-41.26c3.11-20.99-9.28-42.61-28.53-51.25
			c-10.73-4.82-21.65-7.37-33.72-7.32c-88.67,0.38-177.34,0.21-266.02,0.19c-2.49,0-5.03,0-7.46-0.47
			c-7.9-1.52-12.96-7.78-12.45-15.09c0.53-7.48,6.2-12.86,14.26-13.4c2.66-0.18,5.33-0.19,7.99-0.19
			c45.67-0.01,91.34-0.01,137.01-0.01C307.13,429.9,307.13,429.95,307.13,430.01z"/>
		<path class="st0" d="M268.34,405.51c-24.31,0-48.62,0.04-72.94-0.03c-5.99-0.02-11.96-0.08-16.65-5.02
			c-7.18-7.57-4.51-19.8,5.41-23.09c2.78-0.92,5.89-1.15,8.85-1.15c48.81-0.07,97.63-0.01,146.44-0.07
			c17.55-0.02,31.93-11.86,33.77-29.05c0.63-5.89-0.89-12.83-3.67-18.11c-8.83-16.73-36.02-26.83-53.21-4.23
			c-2.01,2.64-3.58,5.6-5.38,8.4c-4.86,7.53-12.85,10.03-19.73,6.18c-8.14-4.54-10.43-12.25-5.84-20.81
			c12.89-24.04,32.3-37.72,60.34-36.57c26.19,1.07,49.9,21.71,56.29,48.38c6.14,25.57-6.15,52.94-29.23,66.64
			c-12.99,7.71-27.1,8.46-41.47,8.52C310.33,405.58,289.34,405.51,268.34,405.51z"/>
		<path class="st0" d="M197.87,483.51c15.81,0,31.63-0.15,47.44,0.07c7.47,0.1,15.03,0.31,22.36,1.54
			c20.03,3.36,38.3,22.01,42.33,42.46c4.44,22.51-4.43,43.24-22.94,55.51c-14.72,9.76-30.65,8.27-46.76,6.37
			c-11.67-1.38-20.59-7.57-27.03-17.01c-2.71-3.98-4.49-8.86-5.6-13.59c-1.63-6.93,0.42-11.36,5.06-13.82
			c5.87-3.11,13.09-2.41,17.71,1.88c4.39,4.07,8.63,8.32,13.01,12.41c5.59,5.2,12.14,5.83,19.09,3.53
			c12.91-4.27,21.33-18.08,18.41-29.96c-2.4-9.77-13.05-18.76-24.04-19.84c-4.78-0.47-9.63-0.2-14.45-0.2
			c-34.48-0.01-68.96-0.01-103.45-0.01c-5.5,0-10.6-1.05-14.46-5.44c-3.74-4.26-4.88-9.01-2.63-14.33c2.24-5.31,6.04-9.05,12-9.1
			c21.31-0.17,42.63-0.07,63.95-0.07C197.87,483.78,197.87,483.64,197.87,483.51z"/>
	</g>
</g>
</svg>
