<?xml version="1.0" encoding="utf-8"?>
<!-- Generator: Adobe Illustrator 25.2.0, SVG Export Plug-In . SVG Version: 6.00 Build 0)  -->
<svg version="1.1" id="레이어_1" xmlns="http://www.w3.org/2000/svg" xmlns:xlink="http://www.w3.org/1999/xlink" x="0px"
	 y="0px" viewBox="0 0 700 700" style="enable-background:new 0 0 700 700;" xml:space="preserve">
<style type="text/css">
	.st0{fill:#FFFFFF;}
</style>
<g>
	<path class="st0" d="M529.82,366.7c-0.51-9.79-0.91-19.59-1.57-29.37c-0.72-10.47-5.27-19.24-13-26.17
		c-32.05-28.73-68.6-12.22-79.7,12.43c-9.02,20.01-17.52,40.24-26.21,60.39c-3.03,7.03-5.77,14.18-8.95,21.14
		c-3.33,7.3-8.06,8.53-14.25,3.62c-9.11-7.22-19.39-10.64-30.95-10.9c-8.51-0.19-9.25-1.24-9.37-9.7
		c-0.21-15.48,0.02-30.99-0.93-46.43c-1.62-26.41-25.8-47.84-51.8-45.55c-18.74,1.65-33.69,10.4-41.56,28.37
		c-15.48,35.34-30.72,70.78-46,106.21c-2.95,6.84-4.07,7.93-11.58,7.73c-13.13-0.35-26.66,0.92-39.31-1.8
		c-38.57-8.3-66.11-37.02-71.91-74.09c-3.23-20.64-1.26-41.88,8.55-60.45c11.82-22.35,30.56-38.47,55.59-44.79
		c11.27-2.85,16.46-7.94,19.76-19.33c13.16-45.38,55.85-72.18,102.71-65.94c0.17,0.02,0.35-0.01,0.49,0.06
		c10.05,4.85,15.64-0.48,21.18-8.27c17.46-24.55,41.38-40.22,70.13-48.47c13.86-3.98,28.19-4.36,42.58-3.95
		c30.37,0.86,57.47,10.19,80.56,30.25c30.32,26.35,46.18,59.53,46.88,99.81c0.02,1-0.03,2,0.03,3c0.4,7.89,0.9,8.52,8.58,10.47
		c19.89,5.03,37.15,14.54,50.58,30.26c20.58,24.08,25.32,51.74,19.31,82.33c-3.44,17.52-12.79,31.13-24.28,43.87
		c-2.41,2.67-5.29,3.28-8.59,1.76c-0.6-0.28-1.3-0.45-1.8-0.86c-11.86-9.77-25.22-15.14-40.84-14.73c-3.87,0.1-4.97-3.4-4.98-6.86
		c-0.04-8-0.01-16-0.01-23.99C529.39,366.72,529.61,366.71,529.82,366.7z"/>
	<path class="st0" d="M468.17,547.5c0-13.83-0.05-27.66,0.03-41.49c0.02-4.21-1.84-6.08-6.03-6.07c-11.83,0.02-23.66-0.06-35.49-0.1
		c-1.67-0.01-3.33,0.02-5-0.01c-12.44-0.2-17.79-8.27-12.91-19.81c4.92-11.64,10.11-23.18,15.14-34.78
		c13.69-31.6,27.33-63.22,41.04-94.81c1.39-3.2,2.96-6.33,4.58-9.42c2.86-5.47,6.27-7.14,12.28-6.08c5.14,0.91,7.75,4.19,8.32,9.22
		c0.32,2.81,0.69,5.63,0.69,8.44c-0.05,24.99-0.21,49.98-0.28,74.98c-0.02,7.93,0.95,8.88,8.93,8.91
		c12.17,0.04,24.33-0.05,36.5,0.03c14.27,0.09,19.18,8.34,13.46,21.49c-17.79,40.87-35.37,81.84-52.97,122.8
		c-1.97,4.57-3.26,9.46-5.42,13.92c-3.28,6.76-7.32,8.38-14.77,6.67c-5.7-1.31-7.99-4.47-8.05-11.91
		C468.1,575.49,468.17,561.49,468.17,547.5z"/>
	<path class="st0" d="M307,388.65c0,13.17-0.01,26.33,0,39.5c0,7.23,0.99,8.27,8.43,8.32c11.33,0.07,22.67,0.02,34,0.02
		c1.33,0,2.67-0.02,4,0.01c12.76,0.28,18.01,8.43,12.92,20.18c-5.42,12.52-10.96,24.98-16.41,37.48
		c-14.63,33.55-29.24,67.11-43.88,100.65c-2.75,6.31-5.52,7.3-14.3,5.86c-5.49-0.9-6.92-4.55-6.93-9.33
		c-0.02-24.49-0.01-48.97-0.01-73.46c0-3.67-0.05-7.33,0.01-11c0.08-4.69-1.9-7.06-6.86-7.02c-13,0.1-26,0.01-38.99-0.04
		c-13.45-0.05-18.91-8.18-13.64-20.4c17.9-41.55,35.82-83.1,53.8-124.61c2.18-5.03,4.74-9.9,7.24-14.78
		c2.4-4.68,6.49-5.82,11.38-5.16c4.71,0.64,7.66,3.3,8.46,7.89c0.62,3.58,0.86,7.26,0.89,10.91c0.11,11.66,0.04,23.33,0.04,34.99
		C307.11,388.65,307.06,388.65,307,388.65z"/>
</g>
</svg>
