<?xml version="1.0" encoding="utf-8"?>
<!-- Generator: Adobe Illustrator 25.2.0, SVG Export Plug-In . SVG Version: 6.00 Build 0)  -->
<svg version="1.1" id="레이어_1" xmlns="http://www.w3.org/2000/svg" xmlns:xlink="http://www.w3.org/1999/xlink" x="0px"
	 y="0px" viewBox="0 0 700 700" style="enable-background:new 0 0 700 700;" xml:space="preserve">
<style type="text/css">
	.st0{fill:#FFFFFF;}
</style>
<g>
	<g>
		<path class="st0" d="M409.81,82.83c23.44,1.74,45.69,0.98,66.82,5.49c36.91,7.88,67.7,26.14,82.93,63.36
			c5.64,13.78,5.49,28.35,3.99,42.87c-3.4,33.1-20.49,59.24-43.84,81.32c-35.4,33.49-76.45,57.99-122.52,74.33
			c-27.74,9.84-56.2,16.43-85.07,21.34c-10.75,1.83-21.92,1.33-32.9,1.65c-7.98,0.23-15.99-0.11-23.96,0.21
			c-1.75,0.07-3.43,1.82-5.15,2.8c1.31,1.41,2.35,3.45,3.97,4.14c34.21,14.68,69.45,15.88,105.81,9.56
			c35.83-6.23,69.49-18.17,101.62-34.66c9.87-5.07,18.81-11.96,28.19-17.97c7.64-4.9,15.59-8.36,24.94-5.28
			c8.54,2.81,13.78,8.65,15.33,17.41c1.61,9.11-0.31,17.4-8.01,23.27c-6.88,5.25-13.87,10.44-21.23,14.97
			c-35.16,21.61-72.75,36.94-113.29,45.7c-23.28,5.03-46.41,8.77-70.23,7.61c-0.66-0.03-1.42-0.13-1.98,0.12
			c-1.8,0.82-3.52,1.79-5.27,2.7c1.26,1.4,2.25,3.3,3.82,4.12c18.91,9.92,39.45,13.49,60.41,13c34.62-0.81,67.73-9.61,100.01-21.68
			c2.63-0.98,5.06-2.51,7.59-3.78c12.26-6.18,25.38-2.24,31.68,9.5c6.39,11.9,2.73,26-9.13,32.4
			c-18.69,10.09-38.58,17.16-59.35,21.69c-21,4.58-42,9.09-63.74,8.18c-1.94-0.08-3.96,1.8-5.94,2.78c1.21,1.64,2.13,3.67,3.68,4.87
			c10.71,8.29,23.59,10.42,36.48,12.2c15.5,2.14,30.91,0.87,46.26-1.73c15-2.54,24.76,1.76,30.28,13.24
			c5.46,11.36,1.08,24.48-10.1,30.29c-9.78,5.09-20.53,5.3-31.14,6.02c-5.64,0.38-11.34,0.55-16.98,0.31
			c-5.42-0.23-8.66,1.98-10.91,6.83c-6.28,13.54-15.52,24.28-29.37,30.76c-14.28,6.68-28.01,4.1-41.28-2.44
			c-7.35-3.62-11.95-14.44-10.39-21.71c1.58-7.41,10.76-14.71,19.59-15.56c1.99-0.19,4.07,0.01,5.94-0.56
			c1.41-0.42,3.29-1.57,3.6-2.76c0.32-1.23-0.68-3.16-1.67-4.3c-1.16-1.34-2.83-2.36-4.45-3.16
			c-23.67-11.67-38.67-30.51-45.92-55.65c-1.96-6.78-6.26-10.44-12.83-12.59c-27.78-9.11-47.45-26.35-54.62-55.72
			c-1.6-6.54-5.62-10.57-11.84-13.07c-26.19-10.53-44.34-29.03-53.52-55.78c-2.24-6.53-5.92-10.72-12-13.68
			c-17.3-8.42-32.45-19.45-43.73-35.5c-8.97-12.76-11-27.24-12.3-42.08c-2.78-31.88,9.26-58.62,28.87-82.65
			c23.46-28.74,53.06-49.75,85.3-67.46c34.88-19.16,72.01-32.44,110.99-39.4C365.58,84.71,388.61,84.57,409.81,82.83z
			 M422.32,128.28c-42.26-0.24-74.75,6.22-106.13,16.13c-35.09,11.08-68.48,26.53-98.15,49.26c-20.54,15.74-38.72,33.08-49.65,56.98
			c-9.86,21.55-5.51,39.83,13,54.62c5.85,4.68,7.92,4.49,11.9-1.76c4.38-6.87,7.93-14.33,12.77-20.84
			c20.31-27.28,46.15-48.62,75.49-65.17c44.52-25.12,92.46-40.56,143.41-46.29c13.18-1.48,26.51,9.42,27.22,22.7
			c0.67,12.45-7.18,21.44-21.18,24.1c-22.53,4.28-45.16,7.56-67.15,14.84c-34.22,11.33-66.18,26.62-93.38,50.29
			c-11.17,9.72-20.04,22.16-29.57,33.67c-3.88,4.69-2.13,7.95,3.91,8.83c0.82,0.12,1.66,0.19,2.49,0.24
			c18.65,1.16,37.31,1.77,55.75-1.91c21.69-4.33,43.79-7.44,64.84-13.94c39.77-12.28,75.9-32.05,108.16-58.66
			c18.22-15.03,32.89-32.5,40.43-55.25c5.18-15.63,1.47-29.26-9.85-40.83c-8.06-8.24-17.96-13.74-28.82-17.4
			C456.92,130.83,435.28,128.59,422.32,128.28z"/>
	</g>
</g>
</svg>
